<?xml version="1.0" encoding="UTF-8"?>
<svg width="640px" height="384px" viewBox="0 0 640 384" version="1.1" xmlns="http://www.w3.org/2000/svg" xmlns:xlink="http://www.w3.org/1999/xlink">
    <title>Art 2130 - Network 6</title>
    <g id="Art-2130---Network-6" stroke="none" stroke-width="1" fill="none" fill-rule="evenodd">
        <rect fill="#F5FCFF" x="0" y="0" width="640" height="384"></rect>
        <path d="M640,0 L640,384 L0,384 L0,0 L640,0 Z M639,1 L1,1 L1,383 L639,383 L639,1 Z" id="Rectangle" fill="#10162F" fill-rule="nonzero"></path>
        <circle id="Oval" fill="#F5FFE3" cx="128.5" cy="149.5" r="43.5"></circle>
        <circle id="Oval-Copy-4" fill="#FDF6FE" cx="320.5" cy="109.5" r="43.5"></circle>
        <circle id="Oval-Copy-5" fill="#FDF6FE" cx="320.5" cy="209.5" r="43.5"></circle>
        <circle id="Oval-Copy-3" fill="#FFFAE5" cx="492.5" cy="209.5" r="43.5"></circle>
        <circle id="Oval-Copy-2" fill="#F5FFE3" cx="128.5" cy="270.5" r="43.5"></circle>
        <circle id="Oval-Copy-6" fill="#FDF6FE" cx="320.5" cy="310.5" r="43.5"></circle>
        <circle id="Oval" stroke="#10162F" cx="128.5" cy="149.5" r="43"></circle>
        <circle id="Oval-Copy-4" stroke="#10162F" cx="320.5" cy="109.5" r="43"></circle>
        <circle id="Oval-Copy-5" stroke="#10162F" cx="320.5" cy="209.5" r="43"></circle>
        <circle id="Oval-Copy-3" stroke="#10162F" cx="492.5" cy="209.5" r="43"></circle>
        <circle id="Oval-Copy-2" stroke="#10162F" cx="128.5" cy="270.5" r="43"></circle>
        <circle id="Oval-Copy-6" stroke="#10162F" cx="320.5" cy="310.5" r="43"></circle>
        <g id="Input-Layer" transform="translate(86.104000, 33.300000)" fill="#10162F" fill-rule="nonzero">
            <polygon id="Path" points="0 1.08 2.196 1.08 2.196 7.62 0 7.62 0 8.7 5.532 8.7 5.532 7.62 3.336 7.62 3.336 1.08 5.532 1.08 5.532 0 0 0"></polygon>
            <path d="M9.12,2.244 L8.016,2.244 L8.016,8.7 L9.12,8.7 L9.12,5.196 C9.12,3.816 9.66,3.072 10.656,3.072 C11.856,3.072 11.94,3.936 11.94,4.98 L11.94,8.7 L13.044,8.7 L13.044,4.596 C13.044,3.168 12.576,2.136 11.016,2.136 C9.996,2.136 9.444,2.604 9.12,3.156 L9.12,2.244 Z" id="Path"></path>
            <path d="M16.824,2.244 L15.72,2.244 L15.72,10.8 L16.824,10.8 L16.824,7.788 C17.184,8.4 17.772,8.856 18.732,8.856 C20.22,8.856 21.336,7.632 21.336,5.496 C21.336,3.372 20.22,2.136 18.732,2.136 C17.772,2.136 17.184,2.592 16.824,3.216 L16.824,2.244 Z M16.776,5.496 C16.776,3.792 17.58,3.06 18.504,3.06 C19.608,3.06 20.172,3.96 20.172,5.496 C20.172,7.032 19.608,7.944 18.504,7.944 C17.58,7.944 16.776,7.2 16.776,5.496 Z" id="Shape"></path>
            <path d="M27.42,8.7 L28.524,8.7 L28.524,2.244 L27.42,2.244 L27.42,5.796 C27.42,7.176 26.88,7.908 25.884,7.908 C24.684,7.908 24.624,7.056 24.624,6.012 L24.624,2.244 L23.52,2.244 L23.52,6.396 C23.52,7.824 23.964,8.856 25.524,8.856 C26.556,8.856 27.072,8.424 27.42,7.872 L27.42,8.7 Z" id="Path"></path>
            <path d="M32.268,2.244 L30.432,2.244 L30.432,3.192 L32.268,3.192 L32.268,7.08 C32.268,8.424 32.604,8.7 33.78,8.7 L36.012,8.7 L36.012,7.752 L34.02,7.752 C33.408,7.752 33.372,7.584 33.372,6.924 L33.372,3.192 L36.012,3.192 L36.012,2.244 L33.372,2.244 L33.372,0.624 L32.268,0.624 L32.268,2.244 Z" id="Path"></path>
            <polygon id="Path" points="48.048 0 46.908 0 46.908 8.7 52.32 8.7 52.32 7.62 48.048 7.62"></polygon>
            <path d="M56.388,8.856 C57.588,8.856 58.26,8.424 58.656,7.752 L58.668,8.7 L59.724,8.7 C59.688,8.268 59.628,7.344 59.64,6.264 L59.652,4.692 C59.676,2.904 58.908,2.112 57.12,2.112 C55.776,2.112 54.552,2.892 54.444,4.284 L55.572,4.284 C55.644,3.492 56.112,3 57.108,3 C57.948,3 58.56,3.336 58.56,4.452 L58.56,4.728 C55.92,5.016 54.288,5.484 54.288,7.02 C54.288,8.184 55.224,8.856 56.388,8.856 Z M58.644,5.784 C58.644,7.5 57.684,7.968 56.7,7.968 C55.92,7.968 55.476,7.608 55.476,6.996 C55.476,6.072 56.676,5.796 58.644,5.604 L58.644,5.784 Z" id="Shape"></path>
            <path d="M63.108,10.8 C64.476,10.8 64.836,10.248 65.292,8.976 L67.68,2.244 L66.54,2.244 L64.824,7.224 L63.072,2.244 L61.86,2.244 L64.272,8.7 L64.224,8.844 C63.888,9.768 63.672,9.852 63,9.852 L61.836,9.852 L61.836,10.8 L63.108,10.8 Z" id="Path"></path>
            <path d="M72.576,8.856 C74.088,8.856 75.096,7.992 75.36,6.768 L74.22,6.768 C73.992,7.5 73.512,7.956 72.552,7.956 C71.532,7.956 70.812,7.104 70.812,5.808 L75.456,5.808 C75.54,3.504 74.46,2.124 72.576,2.124 C70.872,2.124 69.648,3.42 69.648,5.496 C69.648,7.404 70.62,8.856 72.576,8.856 Z M72.576,3.036 C73.704,3.036 74.292,3.84 74.28,4.896 L70.824,4.896 C70.872,3.648 71.532,3.036 72.576,3.036 Z" id="Shape"></path>
            <path d="M77.448,2.244 L77.448,3.192 L79.284,3.192 L79.284,7.752 L77.46,7.752 L77.46,8.7 L82.596,8.7 L82.596,7.752 L80.388,7.752 L80.388,5.484 C80.388,4.068 80.868,3.252 82.104,3.252 L83.196,3.252 L83.196,2.244 L82.092,2.244 C81.3,2.244 80.676,2.676 80.364,3.396 L80.364,2.244 L77.448,2.244 Z" id="Path"></path>
        </g>
        <g id="sz_sqft" transform="translate(103.128000, 145.300000)" fill="#10162F" fill-rule="nonzero">
            <path d="M5.1,4.008 C4.86,2.856 3.924,2.136 2.556,2.136 C1.476,2.136 0.12,2.676 0.12,3.924 C0.12,5.04 0.924,5.544 1.944,5.748 L2.748,5.904 C3.564,6.048 4.104,6.348 4.104,6.948 C4.104,7.704 3.348,7.944 2.664,7.944 C1.764,7.944 1.308,7.512 1.164,6.768 L0,6.768 C0.12,7.8 0.96,8.856 2.64,8.856 C4.044,8.856 5.22,8.184 5.22,6.816 C5.22,5.52 4.02,5.1 2.904,4.884 L2.184,4.74 C1.548,4.608 1.212,4.38 1.212,3.876 C1.212,3.3 1.86,3.048 2.508,3.048 C3.24,3.048 3.804,3.288 3.948,4.008 L5.1,4.008 Z" id="Path"></path>
            <polygon id="Path" points="7.74 8.7 13.068 8.7 13.068 7.752 9.084 7.752 13.008 3.192 13.008 2.244 7.968 2.244 7.968 3.192 11.664 3.192 7.74 7.752"></polygon>
            <polygon id="Path" points="20.472 9.732 20.472 8.7 15.756 8.7 15.756 9.732"></polygon>
            <path d="M28.356,4.008 C28.116,2.856 27.18,2.136 25.812,2.136 C24.732,2.136 23.376,2.676 23.376,3.924 C23.376,5.04 24.18,5.544 25.2,5.748 L26.004,5.904 C26.82,6.048 27.36,6.348 27.36,6.948 C27.36,7.704 26.604,7.944 25.92,7.944 C25.02,7.944 24.564,7.512 24.42,6.768 L23.256,6.768 C23.376,7.8 24.216,8.856 25.896,8.856 C27.3,8.856 28.476,8.184 28.476,6.816 C28.476,5.52 27.276,5.1 26.16,4.884 L25.44,4.74 C24.804,4.608 24.468,4.38 24.468,3.876 C24.468,3.3 25.116,3.048 25.764,3.048 C26.496,3.048 27.06,3.288 27.204,4.008 L28.356,4.008 Z" id="Path"></path>
            <path d="M35.088,3.216 C34.716,2.592 34.14,2.136 33.168,2.136 C31.692,2.136 30.576,3.372 30.576,5.496 C30.576,7.62 31.692,8.856 33.168,8.856 C34.14,8.856 34.716,8.4 35.088,7.788 L35.088,10.8 L36.192,10.8 L36.192,2.244 L35.088,2.244 L35.088,3.216 Z M35.136,5.496 C35.136,7.2 34.32,7.932 33.408,7.932 C32.292,7.932 31.74,7.032 31.74,5.496 C31.74,3.96 32.292,3.06 33.408,3.06 C34.32,3.06 35.136,3.792 35.136,5.496 Z" id="Shape"></path>
            <path d="M40.14,2.244 L38.424,2.244 L38.424,3.192 L40.14,3.192 L40.14,8.7 L41.244,8.7 L41.244,3.192 L44.136,3.192 L44.136,2.244 L41.244,2.244 L41.244,1.776 C41.244,1.104 41.34,0.936 41.88,0.936 L44.136,0.936 L44.136,0 L41.856,0 C40.464,0 40.14,0.432 40.14,1.776 L40.14,2.244 Z" id="Path"></path>
            <path d="M47.616,2.244 L45.78,2.244 L45.78,3.192 L47.616,3.192 L47.616,7.08 C47.616,8.424 47.952,8.7 49.128,8.7 L51.36,8.7 L51.36,7.752 L49.368,7.752 C48.756,7.752 48.72,7.584 48.72,6.924 L48.72,3.192 L51.36,3.192 L51.36,2.244 L48.72,2.244 L48.72,0.624 L47.616,0.624 L47.616,2.244 Z" id="Path"></path>
        </g>
        <g id="+" transform="translate(483.296000, 200.784000)" fill="#10162F" fill-rule="nonzero">
            <polygon id="Path" points="10.176 17.216 10.176 9.984 17.408 9.984 17.408 7.232 10.176 7.232 10.176 0 7.232 0 7.232 7.232 0 7.232 0 9.984 7.232 9.984 7.232 17.216"></polygon>
        </g>
        <g id="1" transform="translate(126.444000, 266.300000)" fill="#10162F" fill-rule="nonzero">
            <path d="M2.604,0 C2.16,0.948 1.452,1.104 0,1.14 L0,1.896 L2.22,1.896 L2.22,7.752 L0,7.752 L0,8.7 L5.148,8.7 L5.148,7.752 L3.324,7.752 L3.324,0 L2.604,0 Z" id="Path"></path>
        </g>
        <g id="Linear-Output-Layer" transform="translate(420.500000, 33.144000)" fill="#10162F" fill-rule="nonzero">
            <polygon id="Path" points="1.14 0.156 0 0.156 0 8.856 5.412 8.856 5.412 7.776 1.14 7.776"></polygon>
            <path d="M9.684,0.156 L9.684,1.464 L10.788,1.464 L10.788,0.156 L9.684,0.156 Z M7.86,2.4 L7.86,3.348 L9.684,3.348 L9.684,7.908 L7.86,7.908 L7.86,8.856 L12.624,8.856 L12.624,7.908 L10.788,7.908 L10.788,2.4 L7.86,2.4 Z" id="Shape"></path>
            <path d="M16.476,2.4 L15.372,2.4 L15.372,8.856 L16.476,8.856 L16.476,5.352 C16.476,3.972 17.016,3.228 18.012,3.228 C19.212,3.228 19.296,4.092 19.296,5.136 L19.296,8.856 L20.4,8.856 L20.4,4.752 C20.4,3.324 19.932,2.292 18.372,2.292 C17.352,2.292 16.8,2.76 16.476,3.312 L16.476,2.4 Z" id="Path"></path>
            <path d="M25.668,9.012 C27.18,9.012 28.188,8.148 28.452,6.924 L27.312,6.924 C27.084,7.656 26.604,8.112 25.644,8.112 C24.624,8.112 23.904,7.26 23.904,5.964 L28.548,5.964 C28.632,3.66 27.552,2.28 25.668,2.28 C23.964,2.28 22.74,3.576 22.74,5.652 C22.74,7.56 23.712,9.012 25.668,9.012 Z M25.668,3.192 C26.796,3.192 27.384,3.996 27.372,5.052 L23.916,5.052 C23.964,3.804 24.624,3.192 25.668,3.192 Z" id="Shape"></path>
            <path d="M32.736,9.012 C33.936,9.012 34.608,8.58 35.004,7.908 L35.016,8.856 L36.072,8.856 C36.036,8.424 35.976,7.5 35.988,6.42 L36,4.848 C36.024,3.06 35.256,2.268 33.468,2.268 C32.124,2.268 30.9,3.048 30.792,4.44 L31.92,4.44 C31.992,3.648 32.46,3.156 33.456,3.156 C34.296,3.156 34.908,3.492 34.908,4.608 L34.908,4.884 C32.268,5.172 30.636,5.64 30.636,7.176 C30.636,8.34 31.572,9.012 32.736,9.012 Z M34.992,5.94 C34.992,7.656 34.032,8.124 33.048,8.124 C32.268,8.124 31.824,7.764 31.824,7.152 C31.824,6.228 33.024,5.952 34.992,5.76 L34.992,5.94 Z" id="Shape"></path>
            <path d="M38.292,2.4 L38.292,3.348 L40.128,3.348 L40.128,7.908 L38.304,7.908 L38.304,8.856 L43.44,8.856 L43.44,7.908 L41.232,7.908 L41.232,5.64 C41.232,4.224 41.712,3.408 42.948,3.408 L44.04,3.408 L44.04,2.4 L42.936,2.4 C42.144,2.4 41.52,2.832 41.208,3.552 L41.208,2.4 L38.292,2.4 Z" id="Path"></path>
            <path d="M56.64,0 C54.468,0 53.388,1.872 53.388,4.5 C53.388,7.116 54.468,9.012 56.64,9.012 C58.812,9.012 59.892,7.116 59.892,4.5 C59.892,1.872 58.812,0 56.64,0 Z M56.64,1.056 C58.08,1.056 58.716,2.304 58.716,4.5 C58.716,6.696 58.08,7.956 56.64,7.956 C55.212,7.956 54.564,6.696 54.564,4.5 C54.564,2.304 55.212,1.056 56.64,1.056 Z" id="Shape"></path>
            <path d="M65.784,8.856 L66.888,8.856 L66.888,2.4 L65.784,2.4 L65.784,5.952 C65.784,7.332 65.244,8.064 64.248,8.064 C63.048,8.064 62.988,7.212 62.988,6.168 L62.988,2.4 L61.884,2.4 L61.884,6.552 C61.884,7.98 62.328,9.012 63.888,9.012 C64.92,9.012 65.436,8.58 65.784,8.028 L65.784,8.856 Z" id="Path"></path>
            <path d="M70.632,2.4 L68.796,2.4 L68.796,3.348 L70.632,3.348 L70.632,7.236 C70.632,8.58 70.968,8.856 72.144,8.856 L74.376,8.856 L74.376,7.908 L72.384,7.908 C71.772,7.908 71.736,7.74 71.736,7.08 L71.736,3.348 L74.376,3.348 L74.376,2.4 L71.736,2.4 L71.736,0.78 L70.632,0.78 L70.632,2.4 Z" id="Path"></path>
            <path d="M78.444,2.4 L77.34,2.4 L77.34,10.956 L78.444,10.956 L78.444,7.944 C78.804,8.556 79.392,9.012 80.352,9.012 C81.84,9.012 82.956,7.788 82.956,5.652 C82.956,3.528 81.84,2.292 80.352,2.292 C79.392,2.292 78.804,2.748 78.444,3.372 L78.444,2.4 Z M78.396,5.652 C78.396,3.948 79.2,3.216 80.124,3.216 C81.228,3.216 81.792,4.116 81.792,5.652 C81.792,7.188 81.228,8.1 80.124,8.1 C79.2,8.1 78.396,7.356 78.396,5.652 Z" id="Shape"></path>
            <path d="M89.04,8.856 L90.144,8.856 L90.144,2.4 L89.04,2.4 L89.04,5.952 C89.04,7.332 88.5,8.064 87.504,8.064 C86.304,8.064 86.244,7.212 86.244,6.168 L86.244,2.4 L85.14,2.4 L85.14,6.552 C85.14,7.98 85.584,9.012 87.144,9.012 C88.176,9.012 88.692,8.58 89.04,8.028 L89.04,8.856 Z" id="Path"></path>
            <path d="M93.888,2.4 L92.052,2.4 L92.052,3.348 L93.888,3.348 L93.888,7.236 C93.888,8.58 94.224,8.856 95.4,8.856 L97.632,8.856 L97.632,7.908 L95.64,7.908 C95.028,7.908 94.992,7.74 94.992,7.08 L94.992,3.348 L97.632,3.348 L97.632,2.4 L94.992,2.4 L94.992,0.78 L93.888,0.78 L93.888,2.4 Z" id="Path"></path>
            <polygon id="Path" points="109.668 0.156 108.528 0.156 108.528 8.856 113.94 8.856 113.94 7.776 109.668 7.776"></polygon>
            <path d="M118.008,9.012 C119.208,9.012 119.88,8.58 120.276,7.908 L120.288,8.856 L121.344,8.856 C121.308,8.424 121.248,7.5 121.26,6.42 L121.272,4.848 C121.296,3.06 120.528,2.268 118.74,2.268 C117.396,2.268 116.172,3.048 116.064,4.44 L117.192,4.44 C117.264,3.648 117.732,3.156 118.728,3.156 C119.568,3.156 120.18,3.492 120.18,4.608 L120.18,4.884 C117.54,5.172 115.908,5.64 115.908,7.176 C115.908,8.34 116.844,9.012 118.008,9.012 Z M120.264,5.94 C120.264,7.656 119.304,8.124 118.32,8.124 C117.54,8.124 117.096,7.764 117.096,7.152 C117.096,6.228 118.296,5.952 120.264,5.76 L120.264,5.94 Z" id="Shape"></path>
            <path d="M124.728,10.956 C126.096,10.956 126.456,10.404 126.912,9.132 L129.3,2.4 L128.16,2.4 L126.444,7.38 L124.692,2.4 L123.48,2.4 L125.892,8.856 L125.844,9 C125.508,9.924 125.292,10.008 124.62,10.008 L123.456,10.008 L123.456,10.956 L124.728,10.956 Z" id="Path"></path>
            <path d="M134.196,9.012 C135.708,9.012 136.716,8.148 136.98,6.924 L135.84,6.924 C135.612,7.656 135.132,8.112 134.172,8.112 C133.152,8.112 132.432,7.26 132.432,5.964 L137.076,5.964 C137.16,3.66 136.08,2.28 134.196,2.28 C132.492,2.28 131.268,3.576 131.268,5.652 C131.268,7.56 132.24,9.012 134.196,9.012 Z M134.196,3.192 C135.324,3.192 135.912,3.996 135.9,5.052 L132.444,5.052 C132.492,3.804 133.152,3.192 134.196,3.192 Z" id="Shape"></path>
            <path d="M139.068,2.4 L139.068,3.348 L140.904,3.348 L140.904,7.908 L139.08,7.908 L139.08,8.856 L144.216,8.856 L144.216,7.908 L142.008,7.908 L142.008,5.64 C142.008,4.224 142.488,3.408 143.724,3.408 L144.816,3.408 L144.816,2.4 L143.712,2.4 C142.92,2.4 142.296,2.832 141.984,3.552 L141.984,2.4 L139.068,2.4 Z" id="Path"></path>
        </g>
        <g id="Hidden-RELU-Layer" transform="translate(256.056000, 33.288000)" fill="#10162F" fill-rule="nonzero">
            <polygon id="Path" points="4.5 0 4.5 3.684 1.14 3.684 1.14 0 0 0 0 8.712 1.14 8.712 1.14 4.764 4.5 4.764 4.5 8.712 5.64 8.712 5.64 0"></polygon>
            <path d="M10.128,0.012 L10.128,1.32 L11.232,1.32 L11.232,0.012 L10.128,0.012 Z M8.304,2.256 L8.304,3.204 L10.128,3.204 L10.128,7.764 L8.304,7.764 L8.304,8.712 L13.068,8.712 L13.068,7.764 L11.232,7.764 L11.232,2.256 L8.304,2.256 Z" id="Shape"></path>
            <path d="M19.776,3.228 C19.416,2.604 18.84,2.148 17.868,2.148 C16.38,2.148 15.264,3.384 15.264,5.508 C15.264,7.644 16.38,8.868 17.868,8.868 C18.84,8.868 19.416,8.412 19.776,7.8 L19.788,8.712 L20.88,8.712 L20.88,0.012 L19.776,0.012 L19.776,3.228 Z M19.824,5.508 C19.824,7.2 19.02,7.956 18.096,7.956 C16.992,7.956 16.428,7.044 16.428,5.508 C16.428,3.972 16.992,3.072 18.096,3.072 C19.02,3.072 19.824,3.804 19.824,5.508 Z" id="Shape"></path>
            <path d="M27.528,3.228 C27.168,2.604 26.592,2.148 25.62,2.148 C24.132,2.148 23.016,3.384 23.016,5.508 C23.016,7.644 24.132,8.868 25.62,8.868 C26.592,8.868 27.168,8.412 27.528,7.8 L27.54,8.712 L28.632,8.712 L28.632,0.012 L27.528,0.012 L27.528,3.228 Z M27.576,5.508 C27.576,7.2 26.772,7.956 25.848,7.956 C24.744,7.956 24.18,7.044 24.18,5.508 C24.18,3.972 24.744,3.072 25.848,3.072 C26.772,3.072 27.576,3.804 27.576,5.508 Z" id="Shape"></path>
            <path d="M33.864,8.868 C35.376,8.868 36.384,8.004 36.648,6.78 L35.508,6.78 C35.28,7.512 34.8,7.968 33.84,7.968 C32.82,7.968 32.1,7.116 32.1,5.82 L36.744,5.82 C36.828,3.516 35.748,2.136 33.864,2.136 C32.16,2.136 30.936,3.432 30.936,5.508 C30.936,7.416 31.908,8.868 33.864,8.868 Z M33.864,3.048 C34.992,3.048 35.58,3.852 35.568,4.908 L32.112,4.908 C32.16,3.66 32.82,3.048 33.864,3.048 Z" id="Shape"></path>
            <path d="M40.176,2.256 L39.072,2.256 L39.072,8.712 L40.176,8.712 L40.176,5.208 C40.176,3.828 40.716,3.084 41.712,3.084 C42.912,3.084 42.996,3.948 42.996,4.992 L42.996,8.712 L44.1,8.712 L44.1,4.608 C44.1,3.18 43.632,2.148 42.072,2.148 C41.052,2.148 40.5,2.616 40.176,3.168 L40.176,2.256 Z" id="Path"></path>
            <path d="M58.98,8.712 L60.276,8.712 L58.428,4.824 C59.376,4.524 60,3.852 60,2.496 C60,0.42 58.536,0.012 56.64,0.012 L54.516,0.012 L54.516,8.712 L55.656,8.712 L55.656,5.052 L56.64,5.052 C56.856,5.052 57.072,5.052 57.276,5.04 L58.98,8.712 Z M56.772,1.092 C57.924,1.092 58.824,1.176 58.824,2.52 C58.824,3.864 57.924,3.972 56.772,3.972 L55.656,3.972 L55.656,1.092 L56.772,1.092 Z" id="Shape"></path>
            <polygon id="Path" points="62.304 8.712 67.488 8.712 67.488 7.632 63.444 7.632 63.444 4.764 67.248 4.764 67.248 3.684 63.444 3.684 63.444 1.092 67.488 1.092 67.488 0.012 62.304 0.012"></polygon>
            <polygon id="Path" points="71.352 0.012 70.212 0.012 70.212 8.712 75.624 8.712 75.624 7.632 71.352 7.632"></polygon>
            <path d="M77.412,0.012 L77.412,5.172 C77.412,7.884 78.156,8.868 80.328,8.868 C82.596,8.868 83.268,7.62 83.268,5.076 L83.268,0.012 L82.128,0.012 L82.128,5.172 C82.128,6.888 81.828,7.812 80.328,7.812 C78.852,7.812 78.552,7.008 78.552,5.304 L78.552,0.012 L77.412,0.012 Z" id="Path"></path>
            <polygon id="Path" points="94.608 0.012 93.468 0.012 93.468 8.712 98.88 8.712 98.88 7.632 94.608 7.632"></polygon>
            <path d="M102.948,8.868 C104.148,8.868 104.82,8.436 105.216,7.764 L105.228,8.712 L106.284,8.712 C106.248,8.28 106.188,7.356 106.2,6.276 L106.212,4.704 C106.236,2.916 105.468,2.124 103.68,2.124 C102.336,2.124 101.112,2.904 101.004,4.296 L102.132,4.296 C102.204,3.504 102.672,3.012 103.668,3.012 C104.508,3.012 105.12,3.348 105.12,4.464 L105.12,4.74 C102.48,5.028 100.848,5.496 100.848,7.032 C100.848,8.196 101.784,8.868 102.948,8.868 Z M105.204,5.796 C105.204,7.512 104.244,7.98 103.26,7.98 C102.48,7.98 102.036,7.62 102.036,7.008 C102.036,6.084 103.236,5.808 105.204,5.616 L105.204,5.796 Z" id="Shape"></path>
            <path d="M109.668,10.812 C111.036,10.812 111.396,10.26 111.852,8.988 L114.24,2.256 L113.1,2.256 L111.384,7.236 L109.632,2.256 L108.42,2.256 L110.832,8.712 L110.784,8.856 C110.448,9.78 110.232,9.864 109.56,9.864 L108.396,9.864 L108.396,10.812 L109.668,10.812 Z" id="Path"></path>
            <path d="M119.136,8.868 C120.648,8.868 121.656,8.004 121.92,6.78 L120.78,6.78 C120.552,7.512 120.072,7.968 119.112,7.968 C118.092,7.968 117.372,7.116 117.372,5.82 L122.016,5.82 C122.1,3.516 121.02,2.136 119.136,2.136 C117.432,2.136 116.208,3.432 116.208,5.508 C116.208,7.416 117.18,8.868 119.136,8.868 Z M119.136,3.048 C120.264,3.048 120.852,3.852 120.84,4.908 L117.384,4.908 C117.432,3.66 118.092,3.048 119.136,3.048 Z" id="Shape"></path>
            <path d="M124.008,2.256 L124.008,3.204 L125.844,3.204 L125.844,7.764 L124.02,7.764 L124.02,8.712 L129.156,8.712 L129.156,7.764 L126.948,7.764 L126.948,5.496 C126.948,4.08 127.428,3.264 128.664,3.264 L129.756,3.264 L129.756,2.256 L128.652,2.256 C127.86,2.256 127.236,2.688 126.924,3.408 L126.924,2.256 L124.008,2.256 Z" id="Path"></path>
        </g>
        <polygon id="Line" fill="#10162F" fill-rule="nonzero" points="277.77345 109.081401 276.618739 119.077232 273.269 116.889 172.418599 271.27345 172.145149 271.692049 171.307951 271.145149 171.581401 270.72655 272.432 116.343 269.083958 114.155131"></polygon>
        <polygon id="Line" fill="#10162F" fill-rule="nonzero" points="277.937274 212.257531 272.248567 220.557447 270.308 217.058 172.242469 271.437274 171.805195 271.679743 171.320257 270.805195 171.757531 270.562726 269.823 216.184 267.884117 212.686515"></polygon>
        <polygon id="Line" fill="#10162F" fill-rule="nonzero" points="171.707063 270.356426 172.175318 270.531744 269.714 307.05 271.117519 303.305284 277.968256 310.675318 267.961786 311.733887 269.364 307.987 171.824682 271.468256 171.356426 271.292937"></polygon>
        <polygon id="Line-Copy" fill="#10162F" fill-rule="nonzero" points="267.903265 101.865433 277.956366 102.295722 271.580275 110.08003 269.946 106.429 172.704278 149.956366 172.247912 150.160645 171.839355 149.247912 172.295722 149.043634 269.537 105.516"></polygon>
        <polygon id="Line-Copy" fill="#10162F" fill-rule="nonzero" points="172.294118 148.823529 172.735294 149.058824 270.235 201.058 272.117647 197.529412 277.941176 205.735294 267.882353 205.470588 269.765 201.94 172.264706 149.941176 171.823529 149.705882"></polygon>
        <polygon id="Line-Copy" fill="#10162F" fill-rule="nonzero" points="172.633535 148.805617 172.913959 149.219576 273.146 297.182 276.458425 294.938874 277.780424 304.913959 269.007157 299.986508 272.318 297.743 172.086041 149.780424 171.805617 149.366465"></polygon>
        <g id="Group" transform="translate(406.500000, 210.000000) scale(1, -1) translate(-406.500000, -210.000000) translate(363.000000, 209.000000)" fill="#10162F" fill-rule="nonzero">
            <polygon id="Line-Copy-4" points="77.7639842 -3.5 86.7639842 1 77.7639842 5.5 77.763 1.5 -0.236015809 1.5 -0.236015809 0.5 77.763 0.5"></polygon>
        </g>
        <g id="Group-Copy" transform="translate(407.000000, 155.500000) scale(1, -1) translate(-407.000000, -155.500000) translate(363.000000, 111.000000)" fill="#10162F" fill-rule="nonzero">
            <polygon id="Line-Copy-4" points="87.8515273 0.144432109 84.7241461 9.70840026 81.879 6.896 0.855567891 88.8515273 0.504040544 89.2070952 -0.207095237 88.5040405 0.144432109 88.1484727 81.168 6.193 78.3239241 3.38090802"></polygon>
        </g>
        <polygon id="Line-Copy-2" fill="#10162F" fill-rule="nonzero" points="450.844953 219.375843 447.893354 228.995514 444.997 226.235 364.36195 310.844953 364.016997 311.206902 363.293098 310.516997 363.63805 310.155047 444.273 225.545 441.378257 222.786367"></polygon>
        <polygon id="Path" fill="#10162F" fill-rule="nonzero" points="331.105573 101.552786 332.894427 102.447214 324.618034 119 308 119 308 117 323.381 117"></polygon>
        <polygon id="Path-Copy" fill="#10162F" fill-rule="nonzero" points="331.105573 201.552786 332.894427 202.447214 324.618034 219 308 219 308 217 323.381 217"></polygon>
        <polygon id="Path-Copy-2" fill="#10162F" fill-rule="nonzero" points="331.105573 302.552786 332.894427 303.447214 324.618034 320 308 320 308 318 323.381 318"></polygon>
    </g>
</svg>