<?xml version="1.0" encoding="UTF-8"?>
<svg width="1200px" height="800px" viewBox="0 0 1200 800" version="1.1" xmlns="http://www.w3.org/2000/svg" xmlns:xlink="http://www.w3.org/1999/xlink">
    <title>Art 2125 - 10</title>
    <g id="Art-2125---10" stroke="none" stroke-width="1" fill="none" fill-rule="evenodd">
        <rect id="Rectangle" fill="#F5FCFF" x="50" y="50" width="1100" height="698"></rect>
        <g id="10" transform="translate(102, 116)" fill="#10162F" fill-rule="nonzero">
            <polygon id="Line-Copy-4" points="347.838867 0 347.838867 1 1 1 1 373.832 35.929 373.832 35.9296875 369.832031 44.9296875 374.332031 35.9296875 378.832031 35.929 374.832 0 374.832031 0 0"></polygon>
        </g>
        <g id="9" transform="translate(377.9017, 116)" fill="#10162F" fill-rule="nonzero">
            <g id="update-weights" transform="translate(-0, 62.732)">
                <path d="M5.2,11.6 L5.2,10.496 C4.64533333,11.3706667 3.80266667,11.808 2.672,11.808 C1.69066667,11.808 1,11.5226667 0.6,10.952 C0.2,10.3813333 0,9.57333333 0,8.528 L0,2.992 L1.472,2.992 L1.472,8.016 C1.472,8.34666667 1.48,8.616 1.496,8.824 C1.512,9.032 1.54933333,9.25866667 1.608,9.504 C1.66666667,9.74933333 1.75466667,9.93866667 1.872,10.072 C1.98933333,10.2053333 2.15466667,10.3173333 2.368,10.408 C2.58133333,10.4986667 2.84266667,10.544 3.152,10.544 C3.81333333,10.544 4.32,10.304 4.672,9.824 C5.024,9.344 5.2,8.64533333 5.2,7.728 L5.2,2.992 L6.672,2.992 L6.672,11.6 L5.2,11.6 Z" id="Path"></path>
                <path d="M11.744,2.992 L11.744,4.288 C12.2986667,3.328 13.1466667,2.848 14.288,2.848 C15.3013333,2.848 16.1333333,3.248 16.784,4.048 C17.4346667,4.848 17.76,5.94133333 17.76,7.328 C17.76,8.71466667 17.4373333,9.808 16.792,10.608 C16.1466667,11.408 15.312,11.808 14.288,11.808 C13.1466667,11.808 12.2986667,11.3333333 11.744,10.384 L11.744,14.4 L10.272,14.4 L10.272,2.992 L11.744,2.992 Z M12.336,4.896 C11.8986667,5.44 11.68,6.25066667 11.68,7.328 C11.68,8.40533333 11.8986667,9.21866667 12.336,9.768 C12.7733333,10.3173333 13.3226667,10.592 13.984,10.592 C14.7093333,10.592 15.2613333,10.3066667 15.64,9.736 C16.0186667,9.16533333 16.208,8.36266667 16.208,7.328 C16.208,6.29333333 16.0186667,5.49333333 15.64,4.928 C15.2613333,4.36266667 14.7093333,4.08 13.984,4.08 C13.3226667,4.08 12.7733333,4.352 12.336,4.896 Z" id="Shape"></path>
                <path d="M25.952,4.288 L25.952,0 L27.424,0 L27.424,11.6 L25.968,11.6 L25.952,10.384 C25.3973333,11.3333333 24.5493333,11.808 23.408,11.808 C22.384,11.808 21.5493333,11.408 20.904,10.608 C20.2586667,9.808 19.936,8.71466667 19.936,7.328 C19.936,5.94133333 20.2613333,4.848 20.912,4.048 C21.5626667,3.248 22.3946667,2.848 23.408,2.848 C24.5493333,2.848 25.3973333,3.328 25.952,4.288 Z M26.016,7.328 C26.016,6.25066667 25.7973333,5.44 25.36,4.896 C24.9226667,4.352 24.3733333,4.08 23.712,4.08 C22.9866667,4.08 22.4346667,4.36266667 22.056,4.928 C21.6773333,5.49333333 21.488,6.29333333 21.488,7.328 C21.488,8.36266667 21.6773333,9.16533333 22.056,9.736 C22.4346667,10.3066667 22.9866667,10.592 23.712,10.592 C24.3733333,10.592 24.9226667,10.3146667 25.36,9.76 C25.7973333,9.20533333 26.016,8.39466667 26.016,7.328 Z" id="Shape"></path>
                <path d="M33.488,11.808 C32.688,11.808 32.0213333,11.5893333 31.488,11.152 C30.9546667,10.7146667 30.688,10.1173333 30.688,9.36 C30.688,8.85866667 30.8133333,8.432 31.064,8.08 C31.3146667,7.728 31.704,7.43733333 32.232,7.208 C32.76,6.97866667 33.3466667,6.79733333 33.992,6.664 C34.6373333,6.53066667 35.4346667,6.41066667 36.384,6.304 L36.384,5.936 C36.384,4.64533333 35.7386667,4 34.448,4 C33.1893333,4 32.5066667,4.57066667 32.4,5.712 L30.896,5.712 C30.96,4.816 31.336,4.10933333 32.024,3.592 C32.712,3.07466667 33.5253333,2.816 34.464,2.816 C35.6586667,2.816 36.5253333,3.09066667 37.064,3.64 C37.6026667,4.18933333 37.8613333,5.06133333 37.84,6.256 L37.824,8.352 C37.8133333,9.472 37.8506667,10.5546667 37.936,11.6 L36.528,11.6 L36.512,10.336 C35.936,11.3173333 34.928,11.808 33.488,11.808 Z M36.496,7.712 L36.496,7.472 C35.0453333,7.61066667 33.9786667,7.81066667 33.296,8.072 C32.6133333,8.33333333 32.272,8.752 32.272,9.328 C32.272,9.73333333 32.4133333,10.0506667 32.696,10.28 C32.9786667,10.5093333 33.3813333,10.624 33.904,10.624 C34.6613333,10.624 35.2826667,10.4026667 35.768,9.96 C36.2533333,9.51733333 36.496,8.768 36.496,7.712 Z" id="Shape"></path>
                <path d="M42.672,2.992 L42.672,0.832 L44.144,0.832 L44.144,2.992 L47.664,2.992 L47.664,4.256 L44.144,4.256 L44.144,9.232 C44.144,9.70133333 44.1893333,10.0026667 44.28,10.136 C44.3706667,10.2693333 44.6133333,10.336 45.008,10.336 L47.664,10.336 L47.664,11.6 L44.688,11.6 C43.888,11.6 43.352,11.4613333 43.08,11.184 C42.808,10.9066667 42.672,10.3253333 42.672,9.44 L42.672,4.256 L40.224,4.256 L40.224,2.992 L42.672,2.992 Z" id="Path"></path>
                <path d="M55.072,11.808 C53.8133333,11.808 52.848,11.3946667 52.176,10.568 C51.504,9.74133333 51.168,8.66133333 51.168,7.328 C51.168,5.96266667 51.5306667,4.872 52.256,4.056 C52.9813333,3.24 53.92,2.832 55.072,2.832 C56.3306667,2.832 57.2986667,3.26666667 57.976,4.136 C58.6533333,5.00533333 58.9653333,6.208 58.912,7.744 L52.72,7.744 C52.72,8.59733333 52.936,9.288 53.368,9.816 C53.8,10.344 54.3573333,10.608 55.04,10.608 C56.192,10.608 56.9333333,10.08 57.264,9.024 L58.784,9.024 C58.6026667,9.856 58.184,10.528 57.528,11.04 C56.872,11.552 56.0533333,11.808 55.072,11.808 Z M55.072,4.048 C54.3573333,4.048 53.7973333,4.256 53.392,4.672 C52.9866667,5.088 52.768,5.70666667 52.736,6.528 L57.344,6.528 C57.3546667,5.80266667 57.16,5.208 56.76,4.744 C56.36,4.28 55.7973333,4.048 55.072,4.048 Z" id="Shape"></path>
                <polygon id="Path" points="74.992 4.72 76.368 4.72 77.648 9.36 78.528 2.992 80.016 2.992 78.576 11.6 77.088 11.6 75.68 6.4 74.272 11.6 72.784 11.6 71.344 2.992 72.848 2.992 73.712 9.36"></polygon>
                <path d="M86.08,11.808 C84.8213333,11.808 83.856,11.3946667 83.184,10.568 C82.512,9.74133333 82.176,8.66133333 82.176,7.328 C82.176,5.96266667 82.5386667,4.872 83.264,4.056 C83.9893333,3.24 84.928,2.832 86.08,2.832 C87.3386667,2.832 88.3066667,3.26666667 88.984,4.136 C89.6613333,5.00533333 89.9733333,6.208 89.92,7.744 L83.728,7.744 C83.728,8.59733333 83.944,9.288 84.376,9.816 C84.808,10.344 85.3653333,10.608 86.048,10.608 C87.2,10.608 87.9413333,10.08 88.272,9.024 L89.792,9.024 C89.6106667,9.856 89.192,10.528 88.536,11.04 C87.88,11.552 87.0613333,11.808 86.08,11.808 Z M86.08,4.048 C85.3653333,4.048 84.8053333,4.256 84.4,4.672 C83.9946667,5.088 83.776,5.70666667 83.744,6.528 L88.352,6.528 C88.3626667,5.80266667 88.168,5.208 87.768,4.744 C87.368,4.28 86.8053333,4.048 86.08,4.048 Z" id="Shape"></path>
                <path d="M95.776,0 L97.248,0 L97.248,1.744 L95.776,1.744 L95.776,0 Z M93.344,2.992 L97.248,2.992 L97.248,10.336 L99.696,10.336 L99.696,11.6 L93.344,11.6 L93.344,10.336 L95.776,10.336 L95.776,4.256 L93.344,4.256 L93.344,2.992 Z" id="Shape"></path>
                <path d="M108.672,4.288 L108.672,2.992 L110.144,2.992 L110.144,10.528 C110.144,11.3706667 110.090667,12.0133333 109.984,12.456 C109.877333,12.8986667 109.701333,13.264 109.456,13.552 C109.157333,13.904 108.736,14.1813333 108.192,14.384 C107.648,14.5866667 107.066667,14.688 106.448,14.688 C105.498667,14.688 104.717333,14.464 104.104,14.016 C103.490667,13.568 103.12,12.928 102.992,12.096 L104.544,12.096 C104.661333,12.5226667 104.861333,12.848 105.144,13.072 C105.426667,13.296 105.866667,13.408 106.464,13.408 C107.274667,13.408 107.861333,13.1946667 108.224,12.768 C108.522667,12.416 108.672,11.7813333 108.672,10.864 L108.672,10.032 C108.128,10.9813333 107.28,11.456 106.128,11.456 C105.093333,11.456 104.256,11.0826667 103.616,10.336 C102.976,9.58933333 102.656,8.528 102.656,7.152 C102.656,5.776 102.978667,4.71466667 103.624,3.968 C104.269333,3.22133333 105.104,2.848 106.128,2.848 C107.269333,2.848 108.117333,3.328 108.672,4.288 Z M108.736,7.152 C108.736,6.08533333 108.522667,5.30666667 108.096,4.816 C107.669333,4.32533333 107.114667,4.08 106.432,4.08 C104.949333,4.08 104.208,5.104 104.208,7.152 C104.208,9.21066667 104.949333,10.24 106.432,10.24 C107.104,10.24 107.656,9.98933333 108.088,9.488 C108.52,8.98666667 108.736,8.208 108.736,7.152 Z" id="Shape"></path>
                <path d="M117.712,2.848 C118.693333,2.848 119.386667,3.136 119.792,3.712 C120.197333,4.288 120.4,5.09333333 120.4,6.128 L120.4,11.6 L118.928,11.6 L118.928,6.64 C118.928,6.30933333 118.92,6.04 118.904,5.832 C118.888,5.624 118.850667,5.39733333 118.792,5.152 C118.733333,4.90666667 118.645333,4.71466667 118.528,4.576 C118.410667,4.43733333 118.242667,4.32 118.024,4.224 C117.805333,4.128 117.541333,4.08 117.232,4.08 C116.570667,4.08 116.061333,4.32533333 115.704,4.816 C115.346667,5.30666667 115.168,6.01066667 115.168,6.928 L115.168,11.6 L113.696,11.6 L113.696,0 L115.168,0 L115.168,4.208 C115.712,3.30133333 116.56,2.848 117.712,2.848 Z" id="Path"></path>
                <path d="M125.36,2.992 L125.36,0.832 L126.832,0.832 L126.832,2.992 L130.352,2.992 L130.352,4.256 L126.832,4.256 L126.832,9.232 C126.832,9.70133333 126.877333,10.0026667 126.968,10.136 C127.058667,10.2693333 127.301333,10.336 127.696,10.336 L130.352,10.336 L130.352,11.6 L127.376,11.6 C126.576,11.6 126.04,11.4613333 125.768,11.184 C125.496,10.9066667 125.36,10.3253333 125.36,9.44 L125.36,4.256 L122.912,4.256 L122.912,2.992 L125.36,2.992 Z" id="Path"></path>
                <path d="M141.024,5.344 L139.488,5.344 C139.317333,4.49066667 138.677333,4.064 137.568,4.064 C137.088,4.064 136.68,4.15733333 136.344,4.344 C136.008,4.53066667 135.84,4.80533333 135.84,5.168 C135.84,5.488 135.946667,5.736 136.16,5.912 C136.373333,6.088 136.698667,6.224 137.136,6.32 L138.096,6.512 C138.426667,6.576 138.725333,6.64533333 138.992,6.72 C139.258667,6.79466667 139.533333,6.90133333 139.816,7.04 C140.098667,7.17866667 140.336,7.336 140.528,7.512 C140.72,7.688 140.877333,7.912 141,8.184 C141.122667,8.456 141.184,8.75733333 141.184,9.088 C141.184,9.96266667 140.858667,10.6346667 140.208,11.104 C139.557333,11.5733333 138.736,11.808 137.744,11.808 C136.698667,11.808 135.872,11.5333333 135.264,10.984 C134.656,10.4346667 134.309333,9.78133333 134.224,9.024 L135.776,9.024 C135.978667,10.0693333 136.645333,10.592 137.776,10.592 C138.309333,10.592 138.762667,10.4853333 139.136,10.272 C139.509333,10.0586667 139.696,9.72266667 139.696,9.264 C139.696,8.54933333 139.093333,8.08533333 137.888,7.872 L136.816,7.664 C135.194667,7.344 134.384,6.53333333 134.384,5.232 C134.384,4.464 134.72,3.87466667 135.392,3.464 C136.064,3.05333333 136.810667,2.848 137.632,2.848 C138.538667,2.848 139.290667,3.06933333 139.888,3.512 C140.485333,3.95466667 140.864,4.56533333 141.024,5.344 Z" id="Path"></path>
            </g>
            <g id="update-weights-copy" transform="translate(173, 62.732)">
                <path d="M5.2,11.6 L5.2,10.496 C4.64533333,11.3706667 3.80266667,11.808 2.672,11.808 C1.69066667,11.808 1,11.5226667 0.6,10.952 C0.2,10.3813333 0,9.57333333 0,8.528 L0,2.992 L1.472,2.992 L1.472,8.016 C1.472,8.34666667 1.48,8.616 1.496,8.824 C1.512,9.032 1.54933333,9.25866667 1.608,9.504 C1.66666667,9.74933333 1.75466667,9.93866667 1.872,10.072 C1.98933333,10.2053333 2.15466667,10.3173333 2.368,10.408 C2.58133333,10.4986667 2.84266667,10.544 3.152,10.544 C3.81333333,10.544 4.32,10.304 4.672,9.824 C5.024,9.344 5.2,8.64533333 5.2,7.728 L5.2,2.992 L6.672,2.992 L6.672,11.6 L5.2,11.6 Z" id="Path"></path>
                <path d="M11.744,2.992 L11.744,4.288 C12.2986667,3.328 13.1466667,2.848 14.288,2.848 C15.3013333,2.848 16.1333333,3.248 16.784,4.048 C17.4346667,4.848 17.76,5.94133333 17.76,7.328 C17.76,8.71466667 17.4373333,9.808 16.792,10.608 C16.1466667,11.408 15.312,11.808 14.288,11.808 C13.1466667,11.808 12.2986667,11.3333333 11.744,10.384 L11.744,14.4 L10.272,14.4 L10.272,2.992 L11.744,2.992 Z M12.336,4.896 C11.8986667,5.44 11.68,6.25066667 11.68,7.328 C11.68,8.40533333 11.8986667,9.21866667 12.336,9.768 C12.7733333,10.3173333 13.3226667,10.592 13.984,10.592 C14.7093333,10.592 15.2613333,10.3066667 15.64,9.736 C16.0186667,9.16533333 16.208,8.36266667 16.208,7.328 C16.208,6.29333333 16.0186667,5.49333333 15.64,4.928 C15.2613333,4.36266667 14.7093333,4.08 13.984,4.08 C13.3226667,4.08 12.7733333,4.352 12.336,4.896 Z" id="Shape"></path>
                <path d="M25.952,4.288 L25.952,0 L27.424,0 L27.424,11.6 L25.968,11.6 L25.952,10.384 C25.3973333,11.3333333 24.5493333,11.808 23.408,11.808 C22.384,11.808 21.5493333,11.408 20.904,10.608 C20.2586667,9.808 19.936,8.71466667 19.936,7.328 C19.936,5.94133333 20.2613333,4.848 20.912,4.048 C21.5626667,3.248 22.3946667,2.848 23.408,2.848 C24.5493333,2.848 25.3973333,3.328 25.952,4.288 Z M26.016,7.328 C26.016,6.25066667 25.7973333,5.44 25.36,4.896 C24.9226667,4.352 24.3733333,4.08 23.712,4.08 C22.9866667,4.08 22.4346667,4.36266667 22.056,4.928 C21.6773333,5.49333333 21.488,6.29333333 21.488,7.328 C21.488,8.36266667 21.6773333,9.16533333 22.056,9.736 C22.4346667,10.3066667 22.9866667,10.592 23.712,10.592 C24.3733333,10.592 24.9226667,10.3146667 25.36,9.76 C25.7973333,9.20533333 26.016,8.39466667 26.016,7.328 Z" id="Shape"></path>
                <path d="M33.488,11.808 C32.688,11.808 32.0213333,11.5893333 31.488,11.152 C30.9546667,10.7146667 30.688,10.1173333 30.688,9.36 C30.688,8.85866667 30.8133333,8.432 31.064,8.08 C31.3146667,7.728 31.704,7.43733333 32.232,7.208 C32.76,6.97866667 33.3466667,6.79733333 33.992,6.664 C34.6373333,6.53066667 35.4346667,6.41066667 36.384,6.304 L36.384,5.936 C36.384,4.64533333 35.7386667,4 34.448,4 C33.1893333,4 32.5066667,4.57066667 32.4,5.712 L30.896,5.712 C30.96,4.816 31.336,4.10933333 32.024,3.592 C32.712,3.07466667 33.5253333,2.816 34.464,2.816 C35.6586667,2.816 36.5253333,3.09066667 37.064,3.64 C37.6026667,4.18933333 37.8613333,5.06133333 37.84,6.256 L37.824,8.352 C37.8133333,9.472 37.8506667,10.5546667 37.936,11.6 L36.528,11.6 L36.512,10.336 C35.936,11.3173333 34.928,11.808 33.488,11.808 Z M36.496,7.712 L36.496,7.472 C35.0453333,7.61066667 33.9786667,7.81066667 33.296,8.072 C32.6133333,8.33333333 32.272,8.752 32.272,9.328 C32.272,9.73333333 32.4133333,10.0506667 32.696,10.28 C32.9786667,10.5093333 33.3813333,10.624 33.904,10.624 C34.6613333,10.624 35.2826667,10.4026667 35.768,9.96 C36.2533333,9.51733333 36.496,8.768 36.496,7.712 Z" id="Shape"></path>
                <path d="M42.672,2.992 L42.672,0.832 L44.144,0.832 L44.144,2.992 L47.664,2.992 L47.664,4.256 L44.144,4.256 L44.144,9.232 C44.144,9.70133333 44.1893333,10.0026667 44.28,10.136 C44.3706667,10.2693333 44.6133333,10.336 45.008,10.336 L47.664,10.336 L47.664,11.6 L44.688,11.6 C43.888,11.6 43.352,11.4613333 43.08,11.184 C42.808,10.9066667 42.672,10.3253333 42.672,9.44 L42.672,4.256 L40.224,4.256 L40.224,2.992 L42.672,2.992 Z" id="Path"></path>
                <path d="M55.072,11.808 C53.8133333,11.808 52.848,11.3946667 52.176,10.568 C51.504,9.74133333 51.168,8.66133333 51.168,7.328 C51.168,5.96266667 51.5306667,4.872 52.256,4.056 C52.9813333,3.24 53.92,2.832 55.072,2.832 C56.3306667,2.832 57.2986667,3.26666667 57.976,4.136 C58.6533333,5.00533333 58.9653333,6.208 58.912,7.744 L52.72,7.744 C52.72,8.59733333 52.936,9.288 53.368,9.816 C53.8,10.344 54.3573333,10.608 55.04,10.608 C56.192,10.608 56.9333333,10.08 57.264,9.024 L58.784,9.024 C58.6026667,9.856 58.184,10.528 57.528,11.04 C56.872,11.552 56.0533333,11.808 55.072,11.808 Z M55.072,4.048 C54.3573333,4.048 53.7973333,4.256 53.392,4.672 C52.9866667,5.088 52.768,5.70666667 52.736,6.528 L57.344,6.528 C57.3546667,5.80266667 57.16,5.208 56.76,4.744 C56.36,4.28 55.7973333,4.048 55.072,4.048 Z" id="Shape"></path>
                <polygon id="Path" points="74.992 4.72 76.368 4.72 77.648 9.36 78.528 2.992 80.016 2.992 78.576 11.6 77.088 11.6 75.68 6.4 74.272 11.6 72.784 11.6 71.344 2.992 72.848 2.992 73.712 9.36"></polygon>
                <path d="M86.08,11.808 C84.8213333,11.808 83.856,11.3946667 83.184,10.568 C82.512,9.74133333 82.176,8.66133333 82.176,7.328 C82.176,5.96266667 82.5386667,4.872 83.264,4.056 C83.9893333,3.24 84.928,2.832 86.08,2.832 C87.3386667,2.832 88.3066667,3.26666667 88.984,4.136 C89.6613333,5.00533333 89.9733333,6.208 89.92,7.744 L83.728,7.744 C83.728,8.59733333 83.944,9.288 84.376,9.816 C84.808,10.344 85.3653333,10.608 86.048,10.608 C87.2,10.608 87.9413333,10.08 88.272,9.024 L89.792,9.024 C89.6106667,9.856 89.192,10.528 88.536,11.04 C87.88,11.552 87.0613333,11.808 86.08,11.808 Z M86.08,4.048 C85.3653333,4.048 84.8053333,4.256 84.4,4.672 C83.9946667,5.088 83.776,5.70666667 83.744,6.528 L88.352,6.528 C88.3626667,5.80266667 88.168,5.208 87.768,4.744 C87.368,4.28 86.8053333,4.048 86.08,4.048 Z" id="Shape"></path>
                <path d="M95.776,0 L97.248,0 L97.248,1.744 L95.776,1.744 L95.776,0 Z M93.344,2.992 L97.248,2.992 L97.248,10.336 L99.696,10.336 L99.696,11.6 L93.344,11.6 L93.344,10.336 L95.776,10.336 L95.776,4.256 L93.344,4.256 L93.344,2.992 Z" id="Shape"></path>
                <path d="M108.672,4.288 L108.672,2.992 L110.144,2.992 L110.144,10.528 C110.144,11.3706667 110.090667,12.0133333 109.984,12.456 C109.877333,12.8986667 109.701333,13.264 109.456,13.552 C109.157333,13.904 108.736,14.1813333 108.192,14.384 C107.648,14.5866667 107.066667,14.688 106.448,14.688 C105.498667,14.688 104.717333,14.464 104.104,14.016 C103.490667,13.568 103.12,12.928 102.992,12.096 L104.544,12.096 C104.661333,12.5226667 104.861333,12.848 105.144,13.072 C105.426667,13.296 105.866667,13.408 106.464,13.408 C107.274667,13.408 107.861333,13.1946667 108.224,12.768 C108.522667,12.416 108.672,11.7813333 108.672,10.864 L108.672,10.032 C108.128,10.9813333 107.28,11.456 106.128,11.456 C105.093333,11.456 104.256,11.0826667 103.616,10.336 C102.976,9.58933333 102.656,8.528 102.656,7.152 C102.656,5.776 102.978667,4.71466667 103.624,3.968 C104.269333,3.22133333 105.104,2.848 106.128,2.848 C107.269333,2.848 108.117333,3.328 108.672,4.288 Z M108.736,7.152 C108.736,6.08533333 108.522667,5.30666667 108.096,4.816 C107.669333,4.32533333 107.114667,4.08 106.432,4.08 C104.949333,4.08 104.208,5.104 104.208,7.152 C104.208,9.21066667 104.949333,10.24 106.432,10.24 C107.104,10.24 107.656,9.98933333 108.088,9.488 C108.52,8.98666667 108.736,8.208 108.736,7.152 Z" id="Shape"></path>
                <path d="M117.712,2.848 C118.693333,2.848 119.386667,3.136 119.792,3.712 C120.197333,4.288 120.4,5.09333333 120.4,6.128 L120.4,11.6 L118.928,11.6 L118.928,6.64 C118.928,6.30933333 118.92,6.04 118.904,5.832 C118.888,5.624 118.850667,5.39733333 118.792,5.152 C118.733333,4.90666667 118.645333,4.71466667 118.528,4.576 C118.410667,4.43733333 118.242667,4.32 118.024,4.224 C117.805333,4.128 117.541333,4.08 117.232,4.08 C116.570667,4.08 116.061333,4.32533333 115.704,4.816 C115.346667,5.30666667 115.168,6.01066667 115.168,6.928 L115.168,11.6 L113.696,11.6 L113.696,0 L115.168,0 L115.168,4.208 C115.712,3.30133333 116.56,2.848 117.712,2.848 Z" id="Path"></path>
                <path d="M125.36,2.992 L125.36,0.832 L126.832,0.832 L126.832,2.992 L130.352,2.992 L130.352,4.256 L126.832,4.256 L126.832,9.232 C126.832,9.70133333 126.877333,10.0026667 126.968,10.136 C127.058667,10.2693333 127.301333,10.336 127.696,10.336 L130.352,10.336 L130.352,11.6 L127.376,11.6 C126.576,11.6 126.04,11.4613333 125.768,11.184 C125.496,10.9066667 125.36,10.3253333 125.36,9.44 L125.36,4.256 L122.912,4.256 L122.912,2.992 L125.36,2.992 Z" id="Path"></path>
                <path d="M141.024,5.344 L139.488,5.344 C139.317333,4.49066667 138.677333,4.064 137.568,4.064 C137.088,4.064 136.68,4.15733333 136.344,4.344 C136.008,4.53066667 135.84,4.80533333 135.84,5.168 C135.84,5.488 135.946667,5.736 136.16,5.912 C136.373333,6.088 136.698667,6.224 137.136,6.32 L138.096,6.512 C138.426667,6.576 138.725333,6.64533333 138.992,6.72 C139.258667,6.79466667 139.533333,6.90133333 139.816,7.04 C140.098667,7.17866667 140.336,7.336 140.528,7.512 C140.72,7.688 140.877333,7.912 141,8.184 C141.122667,8.456 141.184,8.75733333 141.184,9.088 C141.184,9.96266667 140.858667,10.6346667 140.208,11.104 C139.557333,11.5733333 138.736,11.808 137.744,11.808 C136.698667,11.808 135.872,11.5333333 135.264,10.984 C134.656,10.4346667 134.309333,9.78133333 134.224,9.024 L135.776,9.024 C135.978667,10.0693333 136.645333,10.592 137.776,10.592 C138.309333,10.592 138.762667,10.4853333 139.136,10.272 C139.509333,10.0586667 139.696,9.72266667 139.696,9.264 C139.696,8.54933333 139.093333,8.08533333 137.888,7.872 L136.816,7.664 C135.194667,7.344 134.384,6.53333333 134.384,5.232 C134.384,4.464 134.72,3.87466667 135.392,3.464 C136.064,3.05333333 136.810667,2.848 137.632,2.848 C138.538667,2.848 139.290667,3.06933333 139.888,3.512 C140.485333,3.95466667 140.864,4.56533333 141.024,5.344 Z" id="Path"></path>
            </g>
            <polygon id="Line-Copy-4" points="71.2919842 88.5820313 71.2919842 230.356031 75.2919842 230.356079 70.7919842 239.356079 66.2919842 230.356079 70.2919842 230.356031 70.2919842 88.5820313"></polygon>
            <polygon id="Line-Copy-4" points="720.528 0 720.528 376.832031 673.528 376.832031 673.528 375.832031 719.527984 375.832 719.527984 1 70.7919842 1 70.7919842 0"></polygon>
            <polygon id="Line-Copy-11" points="243.791984 88.5820313 243.791984 255.331031 247.791984 255.332031 243.291984 264.332031 238.791984 255.332031 242.791984 255.331031 242.791984 88.5820313"></polygon>
            <polygon id="Line-Copy-13" points="243.791984 0.83203125 243.791984 53.8320312 242.791984 53.8320312 242.791984 0.83203125"></polygon>
            <polygon id="Line-Copy-14" points="71.7919842 0.83203125 71.7919842 53.8320312 70.7919842 53.8320312 70.7919842 0.83203125"></polygon>
        </g>
        <g id="8" transform="translate(893.7905, 448.332)">
            <rect id="Rectangle" fill="#FFFFFF" x="44.13918" y="0" width="114" height="87"></rect>
            <path d="M158.13918,0 L158.13918,87 L44.13918,87 L44.13918,0 L158.13918,0 Z M157.13918,1 L45.13918,1 L45.13918,86 L157.13918,86 L157.13918,1 Z" id="Rectangle" fill="#10162F" fill-rule="nonzero"></path>
            <g id="measure-error" transform="translate(66.2432, 31.216)" fill="#10162F" fill-rule="nonzero">
                <path d="M4.32,1.12 C4.71466667,0.394666667 5.28533333,0.032 6.032,0.032 C6.56533333,0.032 6.99466667,0.221333333 7.32,0.6 C7.64533333,0.978666667 7.808,1.68533333 7.808,2.72 L7.808,8.784 L6.336,8.784 L6.336,3.472 C6.336,3.19466667 6.336,2.992 6.336,2.864 C6.336,2.736 6.328,2.568 6.312,2.36 C6.296,2.152 6.272,1.99733333 6.24,1.896 C6.208,1.79466667 6.16533333,1.68533333 6.112,1.568 C6.05866667,1.45066667 5.98933333,1.37066667 5.904,1.328 C5.81866667,1.28533333 5.71733333,1.264 5.6,1.264 C5.248,1.264 5,1.47466667 4.856,1.896 C4.712,2.31733333 4.64,2.98666667 4.64,3.904 L4.64,8.784 L3.168,8.784 L3.168,3.472 C3.168,3.26933333 3.168,3.11733333 3.168,3.016 C3.168,2.91466667 3.16533333,2.77866667 3.16,2.608 C3.15466667,2.43733333 3.144,2.30933333 3.128,2.224 C3.112,2.13866667 3.09333333,2.032 3.072,1.904 C3.05066667,1.776 3.024,1.68266667 2.992,1.624 C2.96,1.56533333 2.91733333,1.504 2.864,1.44 C2.81066667,1.376 2.74933333,1.33066667 2.68,1.304 C2.61066667,1.27733333 2.53333333,1.264 2.448,1.264 C2.08533333,1.264 1.832,1.47733333 1.688,1.904 C1.544,2.33066667 1.472,3.008 1.472,3.936 L1.472,8.784 L0,8.784 L0,0.176 L1.408,0.176 L1.408,1.088 C1.77066667,0.384 2.29333333,0.032 2.976,0.032 C3.62666667,0.032 4.07466667,0.394666667 4.32,1.12 Z" id="Path"></path>
                <path d="M14.272,8.992 C13.0133333,8.992 12.048,8.57866667 11.376,7.752 C10.704,6.92533333 10.368,5.84533333 10.368,4.512 C10.368,3.14666667 10.7306667,2.056 11.456,1.24 C12.1813333,0.424 13.12,0.016 14.272,0.016 C15.5306667,0.016 16.4986667,0.450666667 17.176,1.32 C17.8533333,2.18933333 18.1653333,3.392 18.112,4.928 L11.92,4.928 C11.92,5.78133333 12.136,6.472 12.568,7 C13,7.528 13.5573333,7.792 14.24,7.792 C15.392,7.792 16.1333333,7.264 16.464,6.208 L17.984,6.208 C17.8026667,7.04 17.384,7.712 16.728,8.224 C16.072,8.736 15.2533333,8.992 14.272,8.992 Z M14.272,1.232 C13.5573333,1.232 12.9973333,1.44 12.592,1.856 C12.1866667,2.272 11.968,2.89066667 11.936,3.712 L16.544,3.712 C16.5546667,2.98666667 16.36,2.392 15.96,1.928 C15.56,1.464 14.9973333,1.232 14.272,1.232 Z" id="Shape"></path>
                <path d="M23.696,8.992 C22.896,8.992 22.2293333,8.77333333 21.696,8.336 C21.1626667,7.89866667 20.896,7.30133333 20.896,6.544 C20.896,6.04266667 21.0213333,5.616 21.272,5.264 C21.5226667,4.912 21.912,4.62133333 22.44,4.392 C22.968,4.16266667 23.5546667,3.98133333 24.2,3.848 C24.8453333,3.71466667 25.6426667,3.59466667 26.592,3.488 L26.592,3.12 C26.592,1.82933333 25.9466667,1.184 24.656,1.184 C23.3973333,1.184 22.7146667,1.75466667 22.608,2.896 L21.104,2.896 C21.168,2 21.544,1.29333333 22.232,0.776 C22.92,0.258666667 23.7333333,0 24.672,0 C25.8666667,0 26.7333333,0.274666667 27.272,0.824 C27.8106667,1.37333333 28.0693333,2.24533333 28.048,3.44 L28.032,5.536 C28.0213333,6.656 28.0586667,7.73866667 28.144,8.784 L26.736,8.784 L26.72,7.52 C26.144,8.50133333 25.136,8.992 23.696,8.992 Z M26.704,4.896 L26.704,4.656 C25.2533333,4.79466667 24.1866667,4.99466667 23.504,5.256 C22.8213333,5.51733333 22.48,5.936 22.48,6.512 C22.48,6.91733333 22.6213333,7.23466667 22.904,7.464 C23.1866667,7.69333333 23.5893333,7.808 24.112,7.808 C24.8693333,7.808 25.4906667,7.58666667 25.976,7.144 C26.4613333,6.70133333 26.704,5.952 26.704,4.896 Z" id="Shape"></path>
                <path d="M38.208,2.528 L36.672,2.528 C36.5013333,1.67466667 35.8613333,1.248 34.752,1.248 C34.272,1.248 33.864,1.34133333 33.528,1.528 C33.192,1.71466667 33.024,1.98933333 33.024,2.352 C33.024,2.672 33.1306667,2.92 33.344,3.096 C33.5573333,3.272 33.8826667,3.408 34.32,3.504 L35.28,3.696 C35.6106667,3.76 35.9093333,3.82933333 36.176,3.904 C36.4426667,3.97866667 36.7173333,4.08533333 37,4.224 C37.2826667,4.36266667 37.52,4.52 37.712,4.696 C37.904,4.872 38.0613333,5.096 38.184,5.368 C38.3066667,5.64 38.368,5.94133333 38.368,6.272 C38.368,7.14666667 38.0426667,7.81866667 37.392,8.288 C36.7413333,8.75733333 35.92,8.992 34.928,8.992 C33.8826667,8.992 33.056,8.71733333 32.448,8.168 C31.84,7.61866667 31.4933333,6.96533333 31.408,6.208 L32.96,6.208 C33.1626667,7.25333333 33.8293333,7.776 34.96,7.776 C35.4933333,7.776 35.9466667,7.66933333 36.32,7.456 C36.6933333,7.24266667 36.88,6.90666667 36.88,6.448 C36.88,5.73333333 36.2773333,5.26933333 35.072,5.056 L34,4.848 C32.3786667,4.528 31.568,3.71733333 31.568,2.416 C31.568,1.648 31.904,1.05866667 32.576,0.648 C33.248,0.237333333 33.9946667,0.032 34.816,0.032 C35.7226667,0.032 36.4746667,0.253333333 37.072,0.696 C37.6693333,1.13866667 38.048,1.74933333 38.208,2.528 Z" id="Path"></path>
                <path d="M47.088,8.784 L47.088,7.68 C46.5333333,8.55466667 45.6906667,8.992 44.56,8.992 C43.5786667,8.992 42.888,8.70666667 42.488,8.136 C42.088,7.56533333 41.888,6.75733333 41.888,5.712 L41.888,0.176 L43.36,0.176 L43.36,5.2 C43.36,5.53066667 43.368,5.8 43.384,6.008 C43.4,6.216 43.4373333,6.44266667 43.496,6.688 C43.5546667,6.93333333 43.6426667,7.12266667 43.76,7.256 C43.8773333,7.38933333 44.0426667,7.50133333 44.256,7.592 C44.4693333,7.68266667 44.7306667,7.728 45.04,7.728 C45.7013333,7.728 46.208,7.488 46.56,7.008 C46.912,6.528 47.088,5.82933333 47.088,4.912 L47.088,0.176 L48.56,0.176 L48.56,8.784 L47.088,8.784 Z" id="Path"></path>
                <path d="M51.776,0.176 L55.664,0.176 L55.664,1.712 C55.8773333,1.232 56.184,0.856 56.584,0.584 C56.984,0.312 57.4453333,0.176 57.968,0.176 L59.44,0.176 L59.44,1.52 L57.984,1.52 C56.4586667,1.52 55.696,2.512 55.696,4.496 L55.696,7.52 L58.64,7.52 L58.64,8.784 L51.792,8.784 L51.792,7.52 L54.224,7.52 L54.224,1.44 L51.776,1.44 L51.776,0.176 Z" id="Path"></path>
                <path d="M65.952,8.992 C64.6933333,8.992 63.728,8.57866667 63.056,7.752 C62.384,6.92533333 62.048,5.84533333 62.048,4.512 C62.048,3.14666667 62.4106667,2.056 63.136,1.24 C63.8613333,0.424 64.8,0.016 65.952,0.016 C67.2106667,0.016 68.1786667,0.450666667 68.856,1.32 C69.5333333,2.18933333 69.8453333,3.392 69.792,4.928 L63.6,4.928 C63.6,5.78133333 63.816,6.472 64.248,7 C64.68,7.528 65.2373333,7.792 65.92,7.792 C67.072,7.792 67.8133333,7.264 68.144,6.208 L69.664,6.208 C69.4826667,7.04 69.064,7.712 68.408,8.224 C67.752,8.736 66.9333333,8.992 65.952,8.992 Z M65.952,1.232 C65.2373333,1.232 64.6773333,1.44 64.272,1.856 C63.8666667,2.272 63.648,2.89066667 63.616,3.712 L68.224,3.712 C68.2346667,2.98666667 68.04,2.392 67.64,1.928 C67.24,1.464 66.6773333,1.232 65.952,1.232 Z" id="Shape"></path>
                <path d="M14.272,29.992 C13.0133333,29.992 12.048,29.5786667 11.376,28.752 C10.704,27.9253333 10.368,26.8453333 10.368,25.512 C10.368,24.1466667 10.7306667,23.056 11.456,22.24 C12.1813333,21.424 13.12,21.016 14.272,21.016 C15.5306667,21.016 16.4986667,21.4506667 17.176,22.32 C17.8533333,23.1893333 18.1653333,24.392 18.112,25.928 L11.92,25.928 C11.92,26.7813333 12.136,27.472 12.568,28 C13,28.528 13.5573333,28.792 14.24,28.792 C15.392,28.792 16.1333333,28.264 16.464,27.208 L17.984,27.208 C17.8026667,28.04 17.384,28.712 16.728,29.224 C16.072,29.736 15.2533333,29.992 14.272,29.992 Z M14.272,22.232 C13.5573333,22.232 12.9973333,22.44 12.592,22.856 C12.1866667,23.272 11.968,23.8906667 11.936,24.712 L16.544,24.712 C16.5546667,23.9866667 16.36,23.392 15.96,22.928 C15.56,22.464 14.9973333,22.232 14.272,22.232 Z" id="Shape"></path>
                <path d="M20.768,21.176 L24.656,21.176 L24.656,22.712 C24.8693333,22.232 25.176,21.856 25.576,21.584 C25.976,21.312 26.4373333,21.176 26.96,21.176 L28.432,21.176 L28.432,22.52 L26.976,22.52 C25.4506667,22.52 24.688,23.512 24.688,25.496 L24.688,28.52 L27.632,28.52 L27.632,29.784 L20.784,29.784 L20.784,28.52 L23.216,28.52 L23.216,22.44 L20.768,22.44 L20.768,21.176 Z" id="Path"></path>
                <path d="M31.104,21.176 L34.992,21.176 L34.992,22.712 C35.2053333,22.232 35.512,21.856 35.912,21.584 C36.312,21.312 36.7733333,21.176 37.296,21.176 L38.768,21.176 L38.768,22.52 L37.312,22.52 C35.7866667,22.52 35.024,23.512 35.024,25.496 L35.024,28.52 L37.968,28.52 L37.968,29.784 L31.12,29.784 L31.12,28.52 L33.552,28.52 L33.552,22.44 L31.104,22.44 L31.104,21.176 Z" id="Path"></path>
                <path d="M43.488,23.08 C43.0293333,23.6133333 42.8,24.424 42.8,25.512 C42.8,26.6 43.0293333,27.4133333 43.488,27.952 C43.9466667,28.4906667 44.528,28.76 45.232,28.76 C45.936,28.76 46.5173333,28.4906667 46.976,27.952 C47.4346667,27.4133333 47.664,26.6 47.664,25.512 C47.664,24.424 47.4346667,23.6106667 46.976,23.072 C46.5173333,22.5333333 45.936,22.264 45.232,22.264 C44.528,22.264 43.9466667,22.536 43.488,23.08 Z M42.416,28.856 C41.6373333,28.088 41.248,26.9733333 41.248,25.512 C41.248,24.0506667 41.64,22.9386667 42.424,22.176 C43.208,21.4133333 44.144,21.032 45.232,21.032 C46.32,21.032 47.256,21.4133333 48.04,22.176 C48.824,22.9386667 49.216,24.0506667 49.216,25.512 C49.216,26.9733333 48.824,28.0853333 48.04,28.848 C47.256,29.6106667 46.32,29.992 45.232,29.992 C44.144,29.992 43.2053333,29.6133333 42.416,28.856 Z" id="Shape"></path>
                <path d="M51.776,21.176 L55.664,21.176 L55.664,22.712 C55.8773333,22.232 56.184,21.856 56.584,21.584 C56.984,21.312 57.4453333,21.176 57.968,21.176 L59.44,21.176 L59.44,22.52 L57.984,22.52 C56.4586667,22.52 55.696,23.512 55.696,25.496 L55.696,28.52 L58.64,28.52 L58.64,29.784 L51.792,29.784 L51.792,28.52 L54.224,28.52 L54.224,22.44 L51.776,22.44 L51.776,21.176 Z" id="Path"></path>
            </g>
            <polygon id="Line-Copy-4" fill="#10162F" fill-rule="nonzero" points="44.8063283 43 44.8063283 44 0 44 0 43"></polygon>
        </g>
        <g id="6" transform="translate(733.501, 261.524)">
            <polygon id="Line-Copy-4" fill="#10162F" fill-rule="nonzero" transform="translate(37.5803, 207.5019) scale(1, -1) translate(-37.5803, -207.5019)" points="65.1894618 193.788514 75.1606434 195.139638 68.0970351 202.305909 66.8037205 198.51917 0.796252315 221.053655 0.323063705 221.215187 0 220.26881 0.47318861 220.107278 66.4807205 197.57317"></polygon>
            <polygon id="Line-Copy-4" fill="#10162F" fill-rule="nonzero" transform="translate(37.5803, 207.5019) scale(1, -1) translate(-37.5803, -207.5019)" points="65.1894618 193.788514 75.1606434 195.139638 68.0970351 202.305909 66.8037205 198.51917 0.796252315 221.053655 0.323063705 221.215187 0 220.26881 0.47318861 220.107278 66.4807205 197.57317"></polygon>
            <polygon id="Line-Copy-4" fill="#10162F" fill-rule="nonzero" points="65.1894618 240.910578 75.1606434 242.261703 68.0970351 249.427973 66.8037205 245.641234 0.796252315 268.17572 0.323063705 268.337252 0 267.390874 0.47318861 267.229343 66.4807205 244.695234"></polygon>
            <g id="Output-Layer" transform="translate(60.7447, 0)" fill="#10162F" fill-rule="nonzero">
                <path d="M1.104,1.648 C1.85066667,0.549333333 2.928,0 4.336,0 C5.744,0 6.81866667,0.546666667 7.56,1.64 C8.30133333,2.73333333 8.672,4.18666667 8.672,6 C8.672,7.81333333 8.30133333,9.26933333 7.56,10.368 C6.81866667,11.4666667 5.744,12.016 4.336,12.016 C2.928,12.016 1.85333333,11.4666667 1.112,10.368 C0.370666667,9.26933333 0,7.81333333 0,6 C0,4.18666667 0.368,2.736 1.104,1.648 Z M7.104,6 C7.104,2.93866667 6.18133333,1.408 4.336,1.408 C2.49066667,1.408 1.568,2.93866667 1.568,6 C1.568,9.072 2.49066667,10.608 4.336,10.608 C6.18133333,10.608 7.104,9.072 7.104,6 Z" id="Shape"></path>
                <path d="M16.528,11.808 L16.528,10.704 C15.9733333,11.5786667 15.1306667,12.016 14,12.016 C13.0186667,12.016 12.328,11.7306667 11.928,11.16 C11.528,10.5893333 11.328,9.78133333 11.328,8.736 L11.328,3.2 L12.8,3.2 L12.8,8.224 C12.8,8.55466667 12.808,8.824 12.824,9.032 C12.84,9.24 12.8773333,9.46666667 12.936,9.712 C12.9946667,9.95733333 13.0826667,10.1466667 13.2,10.28 C13.3173333,10.4133333 13.4826667,10.5253333 13.696,10.616 C13.9093333,10.7066667 14.1706667,10.752 14.48,10.752 C15.1413333,10.752 15.648,10.512 16,10.032 C16.352,9.552 16.528,8.85333333 16.528,7.936 L16.528,3.2 L18,3.2 L18,11.808 L16.528,11.808 Z" id="Path"></path>
                <path d="M22.992,3.2 L22.992,1.04 L24.464,1.04 L24.464,3.2 L27.984,3.2 L27.984,4.464 L24.464,4.464 L24.464,9.44 C24.464,9.90933333 24.5093333,10.2106667 24.6,10.344 C24.6906667,10.4773333 24.9333333,10.544 25.328,10.544 L27.984,10.544 L27.984,11.808 L25.008,11.808 C24.208,11.808 23.672,11.6693333 23.4,11.392 C23.128,11.1146667 22.992,10.5333333 22.992,9.648 L22.992,4.464 L20.544,4.464 L20.544,3.2 L22.992,3.2 Z" id="Path"></path>
                <path d="M33.408,3.2 L33.408,4.496 C33.9626667,3.536 34.8106667,3.056 35.952,3.056 C36.9653333,3.056 37.7973333,3.456 38.448,4.256 C39.0986667,5.056 39.424,6.14933333 39.424,7.536 C39.424,8.92266667 39.1013333,10.016 38.456,10.816 C37.8106667,11.616 36.976,12.016 35.952,12.016 C34.8106667,12.016 33.9626667,11.5413333 33.408,10.592 L33.408,14.608 L31.936,14.608 L31.936,3.2 L33.408,3.2 Z M34,5.104 C33.5626667,5.648 33.344,6.45866667 33.344,7.536 C33.344,8.61333333 33.5626667,9.42666667 34,9.976 C34.4373333,10.5253333 34.9866667,10.8 35.648,10.8 C36.3733333,10.8 36.9253333,10.5146667 37.304,9.944 C37.6826667,9.37333333 37.872,8.57066667 37.872,7.536 C37.872,6.50133333 37.6826667,5.70133333 37.304,5.136 C36.9253333,4.57066667 36.3733333,4.288 35.648,4.288 C34.9866667,4.288 34.4373333,4.56 34,5.104 Z" id="Shape"></path>
                <path d="M47.536,11.808 L47.536,10.704 C46.9813333,11.5786667 46.1386667,12.016 45.008,12.016 C44.0266667,12.016 43.336,11.7306667 42.936,11.16 C42.536,10.5893333 42.336,9.78133333 42.336,8.736 L42.336,3.2 L43.808,3.2 L43.808,8.224 C43.808,8.55466667 43.816,8.824 43.832,9.032 C43.848,9.24 43.8853333,9.46666667 43.944,9.712 C44.0026667,9.95733333 44.0906667,10.1466667 44.208,10.28 C44.3253333,10.4133333 44.4906667,10.5253333 44.704,10.616 C44.9173333,10.7066667 45.1786667,10.752 45.488,10.752 C46.1493333,10.752 46.656,10.512 47.008,10.032 C47.36,9.552 47.536,8.85333333 47.536,7.936 L47.536,3.2 L49.008,3.2 L49.008,11.808 L47.536,11.808 Z" id="Path"></path>
                <path d="M54,3.2 L54,1.04 L55.472,1.04 L55.472,3.2 L58.992,3.2 L58.992,4.464 L55.472,4.464 L55.472,9.44 C55.472,9.90933333 55.5173333,10.2106667 55.608,10.344 C55.6986667,10.4773333 55.9413333,10.544 56.336,10.544 L58.992,10.544 L58.992,11.808 L56.016,11.808 C55.216,11.808 54.68,11.6693333 54.408,11.392 C54.136,11.1146667 54,10.5333333 54,9.648 L54,4.464 L51.552,4.464 L51.552,3.2 L54,3.2 Z" id="Path"></path>
                <polygon id="Path" points="75.04 0.208 75.04 10.368 80.736 10.368 80.736 11.808 73.52 11.808 73.52 0.208"></polygon>
                <path d="M86.16,12.016 C85.36,12.016 84.6933333,11.7973333 84.16,11.36 C83.6266667,10.9226667 83.36,10.3253333 83.36,9.568 C83.36,9.06666667 83.4853333,8.64 83.736,8.288 C83.9866667,7.936 84.376,7.64533333 84.904,7.416 C85.432,7.18666667 86.0186667,7.00533333 86.664,6.872 C87.3093333,6.73866667 88.1066667,6.61866667 89.056,6.512 L89.056,6.144 C89.056,4.85333333 88.4106667,4.208 87.12,4.208 C85.8613333,4.208 85.1786667,4.77866667 85.072,5.92 L83.568,5.92 C83.632,5.024 84.008,4.31733333 84.696,3.8 C85.384,3.28266667 86.1973333,3.024 87.136,3.024 C88.3306667,3.024 89.1973333,3.29866667 89.736,3.848 C90.2746667,4.39733333 90.5333333,5.26933333 90.512,6.464 L90.496,8.56 C90.4853333,9.68 90.5226667,10.7626667 90.608,11.808 L89.2,11.808 L89.184,10.544 C88.608,11.5253333 87.6,12.016 86.16,12.016 Z M89.168,7.92 L89.168,7.68 C87.7173333,7.81866667 86.6506667,8.01866667 85.968,8.28 C85.2853333,8.54133333 84.944,8.96 84.944,9.536 C84.944,9.94133333 85.0853333,10.2586667 85.368,10.488 C85.6506667,10.7173333 86.0533333,10.832 86.576,10.832 C87.3333333,10.832 87.9546667,10.6106667 88.44,10.168 C88.9253333,9.72533333 89.168,8.976 89.168,7.92 Z" id="Shape"></path>
                <path d="M95.12,14.608 L93.424,14.608 L93.424,13.344 L94.976,13.344 C95.4453333,13.344 95.7813333,13.2666667 95.984,13.112 C96.1866667,12.9573333 96.3946667,12.5866667 96.608,12 L96.672,11.808 L93.456,3.2 L95.072,3.2 L97.408,9.84 L99.696,3.2 L101.216,3.2 L98.032,12.176 C97.7013333,13.0933333 97.3493333,13.728 96.976,14.08 C96.6026667,14.432 95.984,14.608 95.12,14.608 Z" id="Path"></path>
                <path d="M107.744,12.016 C106.485333,12.016 105.52,11.6026667 104.848,10.776 C104.176,9.94933333 103.84,8.86933333 103.84,7.536 C103.84,6.17066667 104.202667,5.08 104.928,4.264 C105.653333,3.448 106.592,3.04 107.744,3.04 C109.002667,3.04 109.970667,3.47466667 110.648,4.344 C111.325333,5.21333333 111.637333,6.416 111.584,7.952 L105.392,7.952 C105.392,8.80533333 105.608,9.496 106.04,10.024 C106.472,10.552 107.029333,10.816 107.712,10.816 C108.864,10.816 109.605333,10.288 109.936,9.232 L111.456,9.232 C111.274667,10.064 110.856,10.736 110.2,11.248 C109.544,11.76 108.725333,12.016 107.744,12.016 Z M107.744,4.256 C107.029333,4.256 106.469333,4.464 106.064,4.88 C105.658667,5.296 105.44,5.91466667 105.408,6.736 L110.016,6.736 C110.026667,6.01066667 109.832,5.416 109.432,4.952 C109.032,4.488 108.469333,4.256 107.744,4.256 Z" id="Shape"></path>
                <path d="M114.24,3.2 L118.128,3.2 L118.128,4.736 C118.341333,4.256 118.648,3.88 119.048,3.608 C119.448,3.336 119.909333,3.2 120.432,3.2 L121.904,3.2 L121.904,4.544 L120.448,4.544 C118.922667,4.544 118.16,5.536 118.16,7.52 L118.16,10.544 L121.104,10.544 L121.104,11.808 L114.256,11.808 L114.256,10.544 L116.688,10.544 L116.688,4.464 L114.24,4.464 L114.24,3.2 Z" id="Path"></path>
            </g>
            <circle id="Oval-Copy-4" fill="#FFFAE5" cx="116.928666" cy="230.308" r="43.5"></circle>
            <path d="M116.928666,186.808 C140.953052,186.808 160.428666,206.283613 160.428666,230.308 C160.428666,254.332387 140.953052,273.808 116.928666,273.808 C92.9042792,273.808 73.4286658,254.332387 73.4286658,230.308 C73.4286658,206.283613 92.9042792,186.808 116.928666,186.808 Z M116.928666,187.808 C93.4565639,187.808 74.4286658,206.835898 74.4286658,230.308 C74.4286658,253.780102 93.4565639,272.808 116.928666,272.808 C140.400768,272.808 159.428666,253.780102 159.428666,230.308 C159.428666,206.835898 140.400768,187.808 116.928666,187.808 Z" id="Oval-Copy-4" fill="#10162F" fill-rule="nonzero"></path>
        </g>
        <g id="7" transform="translate(842.2257, 484.116)" fill="#10162F" fill-rule="nonzero">
            <polygon id="Path" points="10.176 17.216 7.232 17.216 7.232 9.984 0 9.984 0 7.232 7.232 7.232 7.232 0 10.176 0 10.176 7.232 17.408 7.232 17.408 9.984 10.176 9.984"></polygon>
        </g>
        <g id="4" transform="translate(535.7281, 261.716)">
            <polygon id="Line-Copy-4" fill="#10162F" fill-rule="nonzero" transform="translate(60.435, 240.7127) scale(1, -1) translate(-60.435, -240.7127)" points="0.550579026 201.846121 0.971489449 202.116 113.552611 274.30091 115.711613 270.933243 120.859094 279.57925 110.853799 278.50963 113.012611 275.14191 0.431732407 202.957821 0.0108219845 202.687942"></polygon>
            <polygon id="Line-Copy-4" fill="#10162F" fill-rule="nonzero" points="0.550579026 178.425211 0.971489449 178.69509 113.552611 250.88 115.711613 247.512332 120.859094 256.158339 110.853799 255.08872 113.012611 251.721 0.431732407 179.53691 0.0108219845 179.267032"></polygon>
            <polygon id="Line-Copy-4" fill="#10162F" fill-rule="nonzero" points="0.550579026 78.4252111 0.971489449 78.6950896 113.552611 150.88 115.711613 147.512332 120.859094 156.158339 110.853799 155.08872 113.012611 151.721 0.431732407 79.5369104 0.0108219845 79.2670319"></polygon>
            <polygon id="Line-Copy-4" fill="#10162F" fill-rule="nonzero" points="0.789600164 78.4143891 1.09641101 78.8091892 125.006611 238.255 128.165492 235.801304 130.134887 245.669003 121.059091 241.323899 124.216611 238.869 0.306810846 79.4228108 0 79.0280108"></polygon>
            <polygon id="Line-Copy-4" fill="#10162F" fill-rule="nonzero" transform="translate(60.435, 340.7127) scale(1, -1) translate(-60.435, -340.7127)" points="0.550579026 301.846121 0.971489449 302.116 113.552611 374.30091 115.711613 370.933243 120.859094 379.57925 110.853799 378.50963 113.012611 375.14191 0.431732407 302.957821 0.0108219845 302.687942"></polygon>
            <polygon id="Line-Copy-4" fill="#10162F" fill-rule="nonzero" transform="translate(65.0674, 296.3485) scale(1, -1) translate(-65.0674, -296.3485)" points="0.789600164 212.7212 1.09641101 213.116 125.006611 372.561811 128.165492 370.108115 130.134887 379.975814 121.059091 375.63071 124.216611 373.175811 0.306810846 213.729622 0 213.334822"></polygon>
            <g id="Hidden-Layer-Copy" transform="translate(102.0936, 0)" fill="#10162F" fill-rule="nonzero">
                <polygon id="Path" points="6 0 7.52 0 7.52 11.616 6 11.616 6 6.352 1.52 6.352 1.52 11.616 -2.27373675e-13 11.616 -2.27373675e-13 0 1.52 0 1.52 4.912 6 4.912"></polygon>
                <path d="M13.504,0.016 L14.976,0.016 L14.976,1.76 L13.504,1.76 L13.504,0.016 Z M11.072,3.008 L14.976,3.008 L14.976,10.352 L17.424,10.352 L17.424,11.616 L11.072,11.616 L11.072,10.352 L13.504,10.352 L13.504,4.272 L11.072,4.272 L11.072,3.008 Z" id="Shape"></path>
                <path d="M26.368,4.304 L26.368,0.016 L27.84,0.016 L27.84,11.616 L26.384,11.616 L26.368,10.4 C25.8133333,11.3493333 24.9653333,11.824 23.824,11.824 C22.8,11.824 21.9653333,11.424 21.32,10.624 C20.6746667,9.824 20.352,8.73066667 20.352,7.344 C20.352,5.95733333 20.6773333,4.864 21.328,4.064 C21.9786667,3.264 22.8106667,2.864 23.824,2.864 C24.9653333,2.864 25.8133333,3.344 26.368,4.304 Z M26.432,7.344 C26.432,6.26666667 26.2133333,5.456 25.776,4.912 C25.3386667,4.368 24.7893333,4.096 24.128,4.096 C23.4026667,4.096 22.8506667,4.37866667 22.472,4.944 C22.0933333,5.50933333 21.904,6.30933333 21.904,7.344 C21.904,8.37866667 22.0933333,9.18133333 22.472,9.752 C22.8506667,10.3226667 23.4026667,10.608 24.128,10.608 C24.7893333,10.608 25.3386667,10.3306667 25.776,9.776 C26.2133333,9.22133333 26.432,8.41066667 26.432,7.344 Z" id="Shape"></path>
                <path d="M36.704,4.304 L36.704,0.016 L38.176,0.016 L38.176,11.616 L36.72,11.616 L36.704,10.4 C36.1493333,11.3493333 35.3013333,11.824 34.16,11.824 C33.136,11.824 32.3013333,11.424 31.656,10.624 C31.0106667,9.824 30.688,8.73066667 30.688,7.344 C30.688,5.95733333 31.0133333,4.864 31.664,4.064 C32.3146667,3.264 33.1466667,2.864 34.16,2.864 C35.3013333,2.864 36.1493333,3.344 36.704,4.304 Z M36.768,7.344 C36.768,6.26666667 36.5493333,5.456 36.112,4.912 C35.6746667,4.368 35.1253333,4.096 34.464,4.096 C33.7386667,4.096 33.1866667,4.37866667 32.808,4.944 C32.4293333,5.50933333 32.24,6.30933333 32.24,7.344 C32.24,8.37866667 32.4293333,9.18133333 32.808,9.752 C33.1866667,10.3226667 33.7386667,10.608 34.464,10.608 C35.1253333,10.608 35.6746667,10.3306667 36.112,9.776 C36.5493333,9.22133333 36.768,8.41066667 36.768,7.344 Z" id="Shape"></path>
                <path d="M45.152,11.824 C43.8933333,11.824 42.928,11.4106667 42.256,10.584 C41.584,9.75733333 41.248,8.67733333 41.248,7.344 C41.248,5.97866667 41.6106667,4.888 42.336,4.072 C43.0613333,3.256 44,2.848 45.152,2.848 C46.4106667,2.848 47.3786667,3.28266667 48.056,4.152 C48.7333333,5.02133333 49.0453333,6.224 48.992,7.76 L42.8,7.76 C42.8,8.61333333 43.016,9.304 43.448,9.832 C43.88,10.36 44.4373333,10.624 45.12,10.624 C46.272,10.624 47.0133333,10.096 47.344,9.04 L48.864,9.04 C48.6826667,9.872 48.264,10.544 47.608,11.056 C46.952,11.568 46.1333333,11.824 45.152,11.824 Z M45.152,4.064 C44.4373333,4.064 43.8773333,4.272 43.472,4.688 C43.0666667,5.104 42.848,5.72266667 42.816,6.544 L47.424,6.544 C47.4346667,5.81866667 47.24,5.224 46.84,4.76 C46.44,4.296 45.8773333,4.064 45.152,4.064 Z" id="Shape"></path>
                <path d="M53.568,3.008 L53.568,4.224 C54.1013333,3.31733333 54.944,2.864 56.096,2.864 C57.0773333,2.864 57.7733333,3.152 58.184,3.728 C58.5946667,4.304 58.8,5.10933333 58.8,6.144 L58.8,11.616 L57.328,11.616 L57.328,6.656 C57.328,6.32533333 57.32,6.056 57.304,5.848 C57.288,5.64 57.248,5.41333333 57.184,5.168 C57.12,4.92266667 57.0293333,4.73066667 56.912,4.592 C56.7946667,4.45333333 56.6266667,4.33866667 56.408,4.248 C56.1893333,4.15733333 55.9253333,4.112 55.616,4.112 C54.9546667,4.112 54.448,4.35466667 54.096,4.84 C53.744,5.32533333 53.568,6.02666667 53.568,6.944 L53.568,11.616 L52.096,11.616 L52.096,3.008 L53.568,3.008 Z" id="Path"></path>
                <polygon id="Path" points="74.464 0.016 74.464 10.176 80.16 10.176 80.16 11.616 72.944 11.616 72.944 0.016"></polygon>
                <path d="M85.584,11.824 C84.784,11.824 84.1173333,11.6053333 83.584,11.168 C83.0506667,10.7306667 82.784,10.1333333 82.784,9.376 C82.784,8.87466667 82.9093333,8.448 83.16,8.096 C83.4106667,7.744 83.8,7.45333333 84.328,7.224 C84.856,6.99466667 85.4426667,6.81333333 86.088,6.68 C86.7333333,6.54666667 87.5306667,6.42666667 88.48,6.32 L88.48,5.952 C88.48,4.66133333 87.8346667,4.016 86.544,4.016 C85.2853333,4.016 84.6026667,4.58666667 84.496,5.728 L82.992,5.728 C83.056,4.832 83.432,4.12533333 84.12,3.608 C84.808,3.09066667 85.6213333,2.832 86.56,2.832 C87.7546667,2.832 88.6213333,3.10666667 89.16,3.656 C89.6986667,4.20533333 89.9573333,5.07733333 89.936,6.272 L89.92,8.368 C89.9093333,9.488 89.9466667,10.5706667 90.032,11.616 L88.624,11.616 L88.608,10.352 C88.032,11.3333333 87.024,11.824 85.584,11.824 Z M88.592,7.728 L88.592,7.488 C87.1413333,7.62666667 86.0746667,7.82666667 85.392,8.088 C84.7093333,8.34933333 84.368,8.768 84.368,9.344 C84.368,9.74933333 84.5093333,10.0666667 84.792,10.296 C85.0746667,10.5253333 85.4773333,10.64 86,10.64 C86.7573333,10.64 87.3786667,10.4186667 87.864,9.976 C88.3493333,9.53333333 88.592,8.784 88.592,7.728 Z" id="Shape"></path>
                <path d="M94.544,14.416 L92.848,14.416 L92.848,13.152 L94.4,13.152 C94.8693333,13.152 95.2053333,13.0746667 95.408,12.92 C95.6106667,12.7653333 95.8186667,12.3946667 96.032,11.808 L96.096,11.616 L92.88,3.008 L94.496,3.008 L96.832,9.648 L99.12,3.008 L100.64,3.008 L97.456,11.984 C97.1253333,12.9013333 96.7733333,13.536 96.4,13.888 C96.0266667,14.24 95.408,14.416 94.544,14.416 Z" id="Path"></path>
                <path d="M107.168,11.824 C105.909333,11.824 104.944,11.4106667 104.272,10.584 C103.6,9.75733333 103.264,8.67733333 103.264,7.344 C103.264,5.97866667 103.626667,4.888 104.352,4.072 C105.077333,3.256 106.016,2.848 107.168,2.848 C108.426667,2.848 109.394667,3.28266667 110.072,4.152 C110.749333,5.02133333 111.061333,6.224 111.008,7.76 L104.816,7.76 C104.816,8.61333333 105.032,9.304 105.464,9.832 C105.896,10.36 106.453333,10.624 107.136,10.624 C108.288,10.624 109.029333,10.096 109.36,9.04 L110.88,9.04 C110.698667,9.872 110.28,10.544 109.624,11.056 C108.968,11.568 108.149333,11.824 107.168,11.824 Z M107.168,4.064 C106.453333,4.064 105.893333,4.272 105.488,4.688 C105.082667,5.104 104.864,5.72266667 104.832,6.544 L109.44,6.544 C109.450667,5.81866667 109.256,5.224 108.856,4.76 C108.456,4.296 107.893333,4.064 107.168,4.064 Z" id="Shape"></path>
                <path d="M113.664,3.008 L117.552,3.008 L117.552,4.544 C117.765333,4.064 118.072,3.688 118.472,3.416 C118.872,3.144 119.333333,3.008 119.856,3.008 L121.328,3.008 L121.328,4.352 L119.872,4.352 C118.346667,4.352 117.584,5.344 117.584,7.328 L117.584,10.352 L120.528,10.352 L120.528,11.616 L113.68,11.616 L113.68,10.352 L116.112,10.352 L116.112,4.272 L113.664,4.272 L113.664,3.008 Z" id="Path"></path>
            </g>
            <circle id="Oval-Copy-11" fill="#FDF6FE" cx="157.701611" cy="179.116" r="43.5"></circle>
            <path d="M157.701611,135.616 C181.725998,135.616 201.201611,155.091613 201.201611,179.116 C201.201611,203.140387 181.725998,222.616 157.701611,222.616 C133.677224,222.616 114.201611,203.140387 114.201611,179.116 C114.201611,155.091613 133.677224,135.616 157.701611,135.616 Z M157.701611,136.616 C134.229509,136.616 115.201611,155.643898 115.201611,179.116 C115.201611,202.588102 134.229509,221.616 157.701611,221.616 C181.173713,221.616 200.201611,202.588102 200.201611,179.116 C200.201611,155.643898 181.173713,136.616 157.701611,136.616 Z" id="Oval-Copy-11" fill="#10162F" fill-rule="nonzero"></path>
            <circle id="Oval-Copy-12" fill="#FDF6FE" cx="157.701611" cy="279.116" r="43.5"></circle>
            <path d="M157.701611,235.616 C181.725998,235.616 201.201611,255.091613 201.201611,279.116 C201.201611,303.140387 181.725998,322.616 157.701611,322.616 C133.677224,322.616 114.201611,303.140387 114.201611,279.116 C114.201611,255.091613 133.677224,235.616 157.701611,235.616 Z M157.701611,236.616 C134.229509,236.616 115.201611,255.643898 115.201611,279.116 C115.201611,302.588102 134.229509,321.616 157.701611,321.616 C181.173713,321.616 200.201611,302.588102 200.201611,279.116 C200.201611,255.643898 181.173713,236.616 157.701611,236.616 Z" id="Oval-Copy-12" fill="#10162F" fill-rule="nonzero"></path>
            <polygon id="Line-Copy-4" fill="#10162F" fill-rule="nonzero" points="105.701611 274.616 114.701611 279.116 105.701611 283.616 105.701595 279.616 43.9655951 279.616 43.9655951 278.616 105.701595 278.616"></polygon>
            <polygon id="Line-Copy-4" fill="#10162F" fill-rule="nonzero" points="105.701611 175.116 114.701611 179.616 105.701611 184.116 105.701595 180.116 43.9655951 180.116 43.9655951 179.116 105.701595 179.116"></polygon>
        </g>
        <g id="5" transform="translate(680.9297, 432.332)" fill="#10162F" fill-rule="nonzero">
            <path d="M24,0 L24,2 L22.1803399,2 C18.7713914,2 15.6550233,3.92602139 14.1304952,6.97507764 L11.6583592,11.9193496 C9.79504706,15.6459739 5.98615276,18 1.81966011,18 L0,18 L0,16 L1.81966011,16 C5.22860864,16 8.3449767,14.0739786 9.86950483,11.0249224 L12.3416408,6.08065045 C14.2049529,2.35402614 18.0138472,0 22.1803399,0 L24,0 Z" id="Path-Copy-7"></path>
            <path d="M24,100 L24,102 L22.1803399,102 C18.7713914,102 15.6550233,103.926021 14.1304952,106.975078 L11.6583592,111.91935 C9.79504706,115.645974 5.98615276,118 1.81966011,118 L0,118 L0,116 L1.81966011,116 C5.22860864,116 8.3449767,114.073979 9.86950483,111.024922 L12.3416408,106.08065 C14.2049529,102.354026 18.0138472,100 22.1803399,100 L24,100 Z" id="Path-Copy-8"></path>
        </g>
        <g id="2" transform="translate(400.588, 261.716)">
            <polygon id="Line-Copy-4" fill="#10162F" fill-rule="nonzero" points="101.198695 105.074778 98.2901078 114.707541 95.3814412 111.960266 11.4239288 200.848004 11.0805968 201.211491 10.3536218 200.524827 10.6969537 200.16134 94.6544412 111.274266 91.7473324 108.527566"></polygon>
            <polygon id="Line-Copy-10" fill="#10162F" fill-rule="nonzero" points="105.216012 210.091953 101.841144 219.571418 99.0704412 216.686266 11.4067537 300.865321 11.0461048 301.211633 10.3534798 300.490335 10.7141287 300.144023 98.3774412 215.964266 95.6075187 213.079738"></polygon>
            <polygon id="Line-Copy-4" fill="#10162F" fill-rule="nonzero" points="84.7450218 91.5193582 94.6933738 93.0294223 87.5163113 100.082065 86.2834608 96.2753828 20.4844213 117.572419 20.0087153 117.726379 19.7007943 116.774967 20.1765002 116.621007 85.9764608 95.3243828"></polygon>
            <polygon id="Line-Copy-5" fill="#10162F" fill-rule="nonzero" points="83.685147 187.906259 93.6867137 189.010189 86.802629 196.349084 85.4164608 192.596383 20.5036542 216.565759 20.0346083 216.738952 19.6882215 215.80086 20.1572673 215.627667 85.0704608 191.658383"></polygon>
            <polygon id="Line-Copy-7" fill="#10162F" fill-rule="nonzero" points="84.7450218 289.519358 94.6933738 291.029422 87.5163113 298.082065 86.2834608 294.275383 20.4844213 315.572419 20.0087153 315.726379 19.7007943 314.774967 20.1765002 314.621007 85.9764608 293.324383"></polygon>
            <polygon id="Line-Copy-4" fill="#10162F" fill-rule="nonzero" transform="translate(57.1971, 154.6572) scale(1, -1) translate(-57.1971, -154.6572)" points="84.7450218 141.553716 94.6933738 143.06378 87.5163113 150.116424 86.2834608 146.309741 20.4844213 167.606777 20.0087153 167.760737 19.7007943 166.809326 20.1765002 166.655365 85.9764608 145.358741"></polygon>
            <polygon id="Line-Copy-6" fill="#10162F" fill-rule="nonzero" transform="translate(56.6847, 255.3984) scale(1, -1) translate(-56.6847, -255.3984)" points="83.6704855 240.537634 93.6845981 241.521274 86.8892184 248.94238 85.4584608 245.206093 20.5092793 270.080353 20.0423489 270.259172 19.6847119 269.325311 20.1516423 269.146492 85.1004608 244.272093"></polygon>
            <polygon id="Line-Copy-8" fill="#10162F" fill-rule="nonzero" transform="translate(57.1971, 352.6572) scale(1, -1) translate(-57.1971, -352.6572)" points="84.7450218 339.553716 94.6933738 341.06378 87.5163113 348.116424 86.2834608 344.309741 20.4844213 365.606777 20.0087153 365.760737 19.7007943 364.809326 20.1765002 364.655365 85.9764608 343.358741"></polygon>
            <polygon id="Line-Copy-4" fill="#10162F" fill-rule="nonzero" transform="translate(55.7771, 305.7984) scale(1, -1) translate(-55.7771, -305.7984)" points="101.200603 258.229084 98.2413764 267.846411 95.3474412 265.08376 11.4221174 353.006 11.0768779 353.367676 10.3535255 352.677197 10.6987651 352.315521 94.6234412 264.39376 91.7312053 261.6321"></polygon>
            <polygon id="Line-Copy-9" fill="#10162F" fill-rule="nonzero" transform="translate(57.7847, 203.7907) scale(1, -1) translate(-57.7847, -203.7907)" points="105.216005 158.229038 101.841326 167.708571 99.0704412 164.823358 11.4067609 249.006 11.0461189 249.35232 10.3534795 248.631036 10.7141216 248.284716 98.3774412 164.101358 95.6075714 161.217014"></polygon>
            <polygon id="Line-Copy-9" fill="#10162F" fill-rule="nonzero" transform="translate(56.1919, 254.9705) scale(1, -1) translate(-56.1919, -254.9705)" points="112.383719 166.936418 111.344688 176.944935 107.970324 174.796152 1.11205745 342.582797 0.843466797 343.00453 0 342.467349 0.268590656 342.045616 107.127324 174.259152 103.753487 172.110303"></polygon>
            <polygon id="Line-Copy-9" fill="#10162F" fill-rule="nonzero" points="111.37983 115.202557 110.432867 125.220204 107.039324 123.101742 1.11450919 292.847499 0.849807535 293.271684 0.00143725749 292.74228 0.266138916 292.318095 106.190324 122.571742 102.797534 120.455575"></polygon>
            <g id="Hidden-Layer" transform="translate(75.2337, 0)" fill="#10162F" fill-rule="nonzero">
                <polygon id="Path" points="6 0 7.52 0 7.52 11.616 6 11.616 6 6.352 1.52 6.352 1.52 11.616 0 11.616 0 0 1.52 0 1.52 4.912 6 4.912"></polygon>
                <path d="M13.504,0.016 L14.976,0.016 L14.976,1.76 L13.504,1.76 L13.504,0.016 Z M11.072,3.008 L14.976,3.008 L14.976,10.352 L17.424,10.352 L17.424,11.616 L11.072,11.616 L11.072,10.352 L13.504,10.352 L13.504,4.272 L11.072,4.272 L11.072,3.008 Z" id="Shape"></path>
                <path d="M26.368,4.304 L26.368,0.016 L27.84,0.016 L27.84,11.616 L26.384,11.616 L26.368,10.4 C25.8133333,11.3493333 24.9653333,11.824 23.824,11.824 C22.8,11.824 21.9653333,11.424 21.32,10.624 C20.6746667,9.824 20.352,8.73066667 20.352,7.344 C20.352,5.95733333 20.6773333,4.864 21.328,4.064 C21.9786667,3.264 22.8106667,2.864 23.824,2.864 C24.9653333,2.864 25.8133333,3.344 26.368,4.304 Z M26.432,7.344 C26.432,6.26666667 26.2133333,5.456 25.776,4.912 C25.3386667,4.368 24.7893333,4.096 24.128,4.096 C23.4026667,4.096 22.8506667,4.37866667 22.472,4.944 C22.0933333,5.50933333 21.904,6.30933333 21.904,7.344 C21.904,8.37866667 22.0933333,9.18133333 22.472,9.752 C22.8506667,10.3226667 23.4026667,10.608 24.128,10.608 C24.7893333,10.608 25.3386667,10.3306667 25.776,9.776 C26.2133333,9.22133333 26.432,8.41066667 26.432,7.344 Z" id="Shape"></path>
                <path d="M36.704,4.304 L36.704,0.016 L38.176,0.016 L38.176,11.616 L36.72,11.616 L36.704,10.4 C36.1493333,11.3493333 35.3013333,11.824 34.16,11.824 C33.136,11.824 32.3013333,11.424 31.656,10.624 C31.0106667,9.824 30.688,8.73066667 30.688,7.344 C30.688,5.95733333 31.0133333,4.864 31.664,4.064 C32.3146667,3.264 33.1466667,2.864 34.16,2.864 C35.3013333,2.864 36.1493333,3.344 36.704,4.304 Z M36.768,7.344 C36.768,6.26666667 36.5493333,5.456 36.112,4.912 C35.6746667,4.368 35.1253333,4.096 34.464,4.096 C33.7386667,4.096 33.1866667,4.37866667 32.808,4.944 C32.4293333,5.50933333 32.24,6.30933333 32.24,7.344 C32.24,8.37866667 32.4293333,9.18133333 32.808,9.752 C33.1866667,10.3226667 33.7386667,10.608 34.464,10.608 C35.1253333,10.608 35.6746667,10.3306667 36.112,9.776 C36.5493333,9.22133333 36.768,8.41066667 36.768,7.344 Z" id="Shape"></path>
                <path d="M45.152,11.824 C43.8933333,11.824 42.928,11.4106667 42.256,10.584 C41.584,9.75733333 41.248,8.67733333 41.248,7.344 C41.248,5.97866667 41.6106667,4.888 42.336,4.072 C43.0613333,3.256 44,2.848 45.152,2.848 C46.4106667,2.848 47.3786667,3.28266667 48.056,4.152 C48.7333333,5.02133333 49.0453333,6.224 48.992,7.76 L42.8,7.76 C42.8,8.61333333 43.016,9.304 43.448,9.832 C43.88,10.36 44.4373333,10.624 45.12,10.624 C46.272,10.624 47.0133333,10.096 47.344,9.04 L48.864,9.04 C48.6826667,9.872 48.264,10.544 47.608,11.056 C46.952,11.568 46.1333333,11.824 45.152,11.824 Z M45.152,4.064 C44.4373333,4.064 43.8773333,4.272 43.472,4.688 C43.0666667,5.104 42.848,5.72266667 42.816,6.544 L47.424,6.544 C47.4346667,5.81866667 47.24,5.224 46.84,4.76 C46.44,4.296 45.8773333,4.064 45.152,4.064 Z" id="Shape"></path>
                <path d="M53.568,3.008 L53.568,4.224 C54.1013333,3.31733333 54.944,2.864 56.096,2.864 C57.0773333,2.864 57.7733333,3.152 58.184,3.728 C58.5946667,4.304 58.8,5.10933333 58.8,6.144 L58.8,11.616 L57.328,11.616 L57.328,6.656 C57.328,6.32533333 57.32,6.056 57.304,5.848 C57.288,5.64 57.248,5.41333333 57.184,5.168 C57.12,4.92266667 57.0293333,4.73066667 56.912,4.592 C56.7946667,4.45333333 56.6266667,4.33866667 56.408,4.248 C56.1893333,4.15733333 55.9253333,4.112 55.616,4.112 C54.9546667,4.112 54.448,4.35466667 54.096,4.84 C53.744,5.32533333 53.568,6.02666667 53.568,6.944 L53.568,11.616 L52.096,11.616 L52.096,3.008 L53.568,3.008 Z" id="Path"></path>
                <polygon id="Path" points="74.464 0.016 74.464 10.176 80.16 10.176 80.16 11.616 72.944 11.616 72.944 0.016"></polygon>
                <path d="M85.584,11.824 C84.784,11.824 84.1173333,11.6053333 83.584,11.168 C83.0506667,10.7306667 82.784,10.1333333 82.784,9.376 C82.784,8.87466667 82.9093333,8.448 83.16,8.096 C83.4106667,7.744 83.8,7.45333333 84.328,7.224 C84.856,6.99466667 85.4426667,6.81333333 86.088,6.68 C86.7333333,6.54666667 87.5306667,6.42666667 88.48,6.32 L88.48,5.952 C88.48,4.66133333 87.8346667,4.016 86.544,4.016 C85.2853333,4.016 84.6026667,4.58666667 84.496,5.728 L82.992,5.728 C83.056,4.832 83.432,4.12533333 84.12,3.608 C84.808,3.09066667 85.6213333,2.832 86.56,2.832 C87.7546667,2.832 88.6213333,3.10666667 89.16,3.656 C89.6986667,4.20533333 89.9573333,5.07733333 89.936,6.272 L89.92,8.368 C89.9093333,9.488 89.9466667,10.5706667 90.032,11.616 L88.624,11.616 L88.608,10.352 C88.032,11.3333333 87.024,11.824 85.584,11.824 Z M88.592,7.728 L88.592,7.488 C87.1413333,7.62666667 86.0746667,7.82666667 85.392,8.088 C84.7093333,8.34933333 84.368,8.768 84.368,9.344 C84.368,9.74933333 84.5093333,10.0666667 84.792,10.296 C85.0746667,10.5253333 85.4773333,10.64 86,10.64 C86.7573333,10.64 87.3786667,10.4186667 87.864,9.976 C88.3493333,9.53333333 88.592,8.784 88.592,7.728 Z" id="Shape"></path>
                <path d="M94.544,14.416 L92.848,14.416 L92.848,13.152 L94.4,13.152 C94.8693333,13.152 95.2053333,13.0746667 95.408,12.92 C95.6106667,12.7653333 95.8186667,12.3946667 96.032,11.808 L96.096,11.616 L92.88,3.008 L94.496,3.008 L96.832,9.648 L99.12,3.008 L100.64,3.008 L97.456,11.984 C97.1253333,12.9013333 96.7733333,13.536 96.4,13.888 C96.0266667,14.24 95.408,14.416 94.544,14.416 Z" id="Path"></path>
                <path d="M107.168,11.824 C105.909333,11.824 104.944,11.4106667 104.272,10.584 C103.6,9.75733333 103.264,8.67733333 103.264,7.344 C103.264,5.97866667 103.626667,4.888 104.352,4.072 C105.077333,3.256 106.016,2.848 107.168,2.848 C108.426667,2.848 109.394667,3.28266667 110.072,4.152 C110.749333,5.02133333 111.061333,6.224 111.008,7.76 L104.816,7.76 C104.816,8.61333333 105.032,9.304 105.464,9.832 C105.896,10.36 106.453333,10.624 107.136,10.624 C108.288,10.624 109.029333,10.096 109.36,9.04 L110.88,9.04 C110.698667,9.872 110.28,10.544 109.624,11.056 C108.968,11.568 108.149333,11.824 107.168,11.824 Z M107.168,4.064 C106.453333,4.064 105.893333,4.272 105.488,4.688 C105.082667,5.104 104.864,5.72266667 104.832,6.544 L109.44,6.544 C109.450667,5.81866667 109.256,5.224 108.856,4.76 C108.456,4.296 107.893333,4.064 107.168,4.064 Z" id="Shape"></path>
                <path d="M113.664,3.008 L117.552,3.008 L117.552,4.544 C117.765333,4.064 118.072,3.688 118.472,3.416 C118.872,3.144 119.333333,3.008 119.856,3.008 L121.328,3.008 L121.328,4.352 L119.872,4.352 C118.346667,4.352 117.584,5.344 117.584,7.328 L117.584,10.352 L120.528,10.352 L120.528,11.616 L113.68,11.616 L113.68,10.352 L116.112,10.352 L116.112,4.272 L113.664,4.272 L113.664,3.008 Z" id="Path"></path>
            </g>
            <circle id="Oval-Copy-7" fill="#FDF6FE" cx="135.841691" cy="79.116" r="43.5"></circle>
            <path d="M135.841691,35.616 C159.866078,35.616 179.341691,55.0916134 179.341691,79.116 C179.341691,103.140387 159.866078,122.616 135.841691,122.616 C111.817305,122.616 92.3416912,103.140387 92.3416912,79.116 C92.3416912,55.0916134 111.817305,35.616 135.841691,35.616 Z M135.841691,36.616 C112.369589,36.616 93.3416912,55.6438981 93.3416912,79.116 C93.3416912,102.588102 112.369589,121.616 135.841691,121.616 C159.313793,121.616 178.341691,102.588102 178.341691,79.116 C178.341691,55.6438981 159.313793,36.616 135.841691,36.616 Z" id="Oval-Copy-7" fill="#10162F" fill-rule="nonzero"></path>
            <circle id="Oval-Copy-8" fill="#FDF6FE" cx="135.841691" cy="179.116" r="43.5"></circle>
            <path d="M135.841691,135.616 C159.866078,135.616 179.341691,155.091613 179.341691,179.116 C179.341691,203.140387 159.866078,222.616 135.841691,222.616 C111.817305,222.616 92.3416912,203.140387 92.3416912,179.116 C92.3416912,155.091613 111.817305,135.616 135.841691,135.616 Z M135.841691,136.616 C112.369589,136.616 93.3416912,155.643898 93.3416912,179.116 C93.3416912,202.588102 112.369589,221.616 135.841691,221.616 C159.313793,221.616 178.341691,202.588102 178.341691,179.116 C178.341691,155.643898 159.313793,136.616 135.841691,136.616 Z" id="Oval-Copy-8" fill="#10162F" fill-rule="nonzero"></path>
            <circle id="Oval-Copy-9" fill="#FDF6FE" cx="135.841691" cy="279.116" r="43.5"></circle>
            <path d="M135.841691,235.616 C159.866078,235.616 179.341691,255.091613 179.341691,279.116 C179.341691,303.140387 159.866078,322.616 135.841691,322.616 C111.817305,322.616 92.3416912,303.140387 92.3416912,279.116 C92.3416912,255.091613 111.817305,235.616 135.841691,235.616 Z M135.841691,236.616 C112.369589,236.616 93.3416912,255.643898 93.3416912,279.116 C93.3416912,302.588102 112.369589,321.616 135.841691,321.616 C159.313793,321.616 178.341691,302.588102 178.341691,279.116 C178.341691,255.643898 159.313793,236.616 135.841691,236.616 Z" id="Oval-Copy-9" fill="#10162F" fill-rule="nonzero"></path>
            <circle id="Oval-Copy-10" fill="#FDF6FE" cx="135.841691" cy="379.116" r="43.5"></circle>
            <path d="M135.841691,335.616 C159.866078,335.616 179.341691,355.091613 179.341691,379.116 C179.341691,403.140387 159.866078,422.616 135.841691,422.616 C111.817305,422.616 92.3416912,403.140387 92.3416912,379.116 C92.3416912,355.091613 111.817305,335.616 135.841691,335.616 Z M135.841691,336.616 C112.369589,336.616 93.3416912,355.643898 93.3416912,379.116 C93.3416912,402.588102 112.369589,421.616 135.841691,421.616 C159.313793,421.616 178.341691,402.588102 178.341691,379.116 C178.341691,355.643898 159.313793,336.616 135.841691,336.616 Z" id="Oval-Copy-10" fill="#10162F" fill-rule="nonzero"></path>
        </g>
        <g id="3" transform="translate(523.9297, 332.8848)" fill="#10162F" fill-rule="nonzero">
            <polygon id="Path-Copy-3" points="23.1055728 0 24.8944272 0.894427191 16.8944272 16.8944272 16.618034 17.4472136 0 17.4472136 0 15.4472136 15.381 15.4472136"></polygon>
            <polygon id="Path-Copy-4" points="23.1055728 100 24.8944272 100.894427 16.8944272 116.894427 16.618034 117.447214 0 117.447214 0 115.447214 15.381 115.447214"></polygon>
            <polygon id="Path-Copy-5" points="23.1055728 200 24.8944272 200.894427 16.8944272 216.894427 16.618034 217.447214 0 217.447214 0 215.447214 15.381 215.447214"></polygon>
            <polygon id="Path-Copy-6" points="23.1055728 300 24.8944272 300.894427 16.8944272 316.894427 16.618034 317.447214 0 317.447214 0 315.447214 15.381 315.447214"></polygon>
        </g>
        <g id="1" transform="translate(156.9657, 261.732)">
            <g id="Input-Layer" transform="translate(161.088, 0)" fill="#10162F" fill-rule="nonzero">
                <polygon id="Path" points="0 1.44 0 0 7.376 0 7.376 1.44 4.448 1.44 4.448 10.16 7.376 10.16 7.376 11.6 0 11.6 0 10.16 2.928 10.16 2.928 1.44"></polygon>
                <path d="M12.16,2.992 L12.16,4.208 C12.6933333,3.30133333 13.536,2.848 14.688,2.848 C15.6693333,2.848 16.3653333,3.136 16.776,3.712 C17.1866667,4.288 17.392,5.09333333 17.392,6.128 L17.392,11.6 L15.92,11.6 L15.92,6.64 C15.92,6.30933333 15.912,6.04 15.896,5.832 C15.88,5.624 15.84,5.39733333 15.776,5.152 C15.712,4.90666667 15.6213333,4.71466667 15.504,4.576 C15.3866667,4.43733333 15.2186667,4.32266667 15,4.232 C14.7813333,4.14133333 14.5173333,4.096 14.208,4.096 C13.5466667,4.096 13.04,4.33866667 12.688,4.824 C12.336,5.30933333 12.16,6.01066667 12.16,6.928 L12.16,11.6 L10.688,11.6 L10.688,2.992 L12.16,2.992 Z" id="Path"></path>
                <path d="M22.432,2.992 L22.432,4.288 C22.9866667,3.328 23.8346667,2.848 24.976,2.848 C25.9893333,2.848 26.8213333,3.248 27.472,4.048 C28.1226667,4.848 28.448,5.94133333 28.448,7.328 C28.448,8.71466667 28.1253333,9.808 27.48,10.608 C26.8346667,11.408 26,11.808 24.976,11.808 C23.8346667,11.808 22.9866667,11.3333333 22.432,10.384 L22.432,14.4 L20.96,14.4 L20.96,2.992 L22.432,2.992 Z M23.024,4.896 C22.5866667,5.44 22.368,6.25066667 22.368,7.328 C22.368,8.40533333 22.5866667,9.21866667 23.024,9.768 C23.4613333,10.3173333 24.0106667,10.592 24.672,10.592 C25.3973333,10.592 25.9493333,10.3066667 26.328,9.736 C26.7066667,9.16533333 26.896,8.36266667 26.896,7.328 C26.896,6.29333333 26.7066667,5.49333333 26.328,4.928 C25.9493333,4.36266667 25.3973333,4.08 24.672,4.08 C24.0106667,4.08 23.4613333,4.352 23.024,4.896 Z" id="Shape"></path>
                <path d="M36.56,11.6 L36.56,10.496 C36.0053333,11.3706667 35.1626667,11.808 34.032,11.808 C33.0506667,11.808 32.36,11.5226667 31.96,10.952 C31.56,10.3813333 31.36,9.57333333 31.36,8.528 L31.36,2.992 L32.832,2.992 L32.832,8.016 C32.832,8.34666667 32.84,8.616 32.856,8.824 C32.872,9.032 32.9093333,9.25866667 32.968,9.504 C33.0266667,9.74933333 33.1146667,9.93866667 33.232,10.072 C33.3493333,10.2053333 33.5146667,10.3173333 33.728,10.408 C33.9413333,10.4986667 34.2026667,10.544 34.512,10.544 C35.1733333,10.544 35.68,10.304 36.032,9.824 C36.384,9.344 36.56,8.64533333 36.56,7.728 L36.56,2.992 L38.032,2.992 L38.032,11.6 L36.56,11.6 Z" id="Path"></path>
                <path d="M43.024,2.992 L43.024,0.832 L44.496,0.832 L44.496,2.992 L48.016,2.992 L48.016,4.256 L44.496,4.256 L44.496,9.232 C44.496,9.70133333 44.5413333,10.0026667 44.632,10.136 C44.7226667,10.2693333 44.9653333,10.336 45.36,10.336 L48.016,10.336 L48.016,11.6 L45.04,11.6 C44.24,11.6 43.704,11.4613333 43.432,11.184 C43.16,10.9066667 43.024,10.3253333 43.024,9.44 L43.024,4.256 L40.576,4.256 L40.576,2.992 L43.024,2.992 Z" id="Path"></path>
                <polygon id="Path" points="64.064 0 64.064 10.16 69.76 10.16 69.76 11.6 62.544 11.6 62.544 0"></polygon>
                <path d="M75.184,11.808 C74.384,11.808 73.7173333,11.5893333 73.184,11.152 C72.6506667,10.7146667 72.384,10.1173333 72.384,9.36 C72.384,8.85866667 72.5093333,8.432 72.76,8.08 C73.0106667,7.728 73.4,7.43733333 73.928,7.208 C74.456,6.97866667 75.0426667,6.79733333 75.688,6.664 C76.3333333,6.53066667 77.1306667,6.41066667 78.08,6.304 L78.08,5.936 C78.08,4.64533333 77.4346667,4 76.144,4 C74.8853333,4 74.2026667,4.57066667 74.096,5.712 L72.592,5.712 C72.656,4.816 73.032,4.10933333 73.72,3.592 C74.408,3.07466667 75.2213333,2.816 76.16,2.816 C77.3546667,2.816 78.2213333,3.09066667 78.76,3.64 C79.2986667,4.18933333 79.5573333,5.06133333 79.536,6.256 L79.52,8.352 C79.5093333,9.472 79.5466667,10.5546667 79.632,11.6 L78.224,11.6 L78.208,10.336 C77.632,11.3173333 76.624,11.808 75.184,11.808 Z M78.192,7.712 L78.192,7.472 C76.7413333,7.61066667 75.6746667,7.81066667 74.992,8.072 C74.3093333,8.33333333 73.968,8.752 73.968,9.328 C73.968,9.73333333 74.1093333,10.0506667 74.392,10.28 C74.6746667,10.5093333 75.0773333,10.624 75.6,10.624 C76.3573333,10.624 76.9786667,10.4026667 77.464,9.96 C77.9493333,9.51733333 78.192,8.768 78.192,7.712 Z" id="Shape"></path>
                <path d="M84.144,14.4 L82.448,14.4 L82.448,13.136 L84,13.136 C84.4693333,13.136 84.8053333,13.0586667 85.008,12.904 C85.2106667,12.7493333 85.4186667,12.3786667 85.632,11.792 L85.696,11.6 L82.48,2.992 L84.096,2.992 L86.432,9.632 L88.72,2.992 L90.24,2.992 L87.056,11.968 C86.7253333,12.8853333 86.3733333,13.52 86,13.872 C85.6266667,14.224 85.008,14.4 84.144,14.4 Z" id="Path"></path>
                <path d="M96.768,11.808 C95.5093333,11.808 94.544,11.3946667 93.872,10.568 C93.2,9.74133333 92.864,8.66133333 92.864,7.328 C92.864,5.96266667 93.2266667,4.872 93.952,4.056 C94.6773333,3.24 95.616,2.832 96.768,2.832 C98.0266667,2.832 98.9946667,3.26666667 99.672,4.136 C100.349333,5.00533333 100.661333,6.208 100.608,7.744 L94.416,7.744 C94.416,8.59733333 94.632,9.288 95.064,9.816 C95.496,10.344 96.0533333,10.608 96.736,10.608 C97.888,10.608 98.6293333,10.08 98.96,9.024 L100.48,9.024 C100.298667,9.856 99.88,10.528 99.224,11.04 C98.568,11.552 97.7493333,11.808 96.768,11.808 Z M96.768,4.048 C96.0533333,4.048 95.4933333,4.256 95.088,4.672 C94.6826667,5.088 94.464,5.70666667 94.432,6.528 L99.04,6.528 C99.0506667,5.80266667 98.856,5.208 98.456,4.744 C98.056,4.28 97.4933333,4.048 96.768,4.048 Z" id="Shape"></path>
                <path d="M103.264,2.992 L107.152,2.992 L107.152,4.528 C107.365333,4.048 107.672,3.672 108.072,3.4 C108.472,3.128 108.933333,2.992 109.456,2.992 L110.928,2.992 L110.928,4.336 L109.472,4.336 C107.946667,4.336 107.184,5.328 107.184,7.312 L107.184,10.336 L110.128,10.336 L110.128,11.6 L103.28,11.6 L103.28,10.336 L105.712,10.336 L105.712,4.256 L103.264,4.256 L103.264,2.992 Z" id="Path"></path>
            </g>
            <g id="Group" transform="translate(0, 86.6)">
                <g id="feedforward" transform="translate(0, 135.4)" fill="#10162F" fill-rule="nonzero">
                    <path d="M2.288,2.992 L2.288,2.368 C2.288,1.45066667 2.44266667,0.826666667 2.752,0.496 C3.06133333,0.165333333 3.66933333,0 4.576,0 L7.616,0 L7.616,1.248 L4.608,1.248 C4.256,1.248 4.02666667,1.32 3.92,1.464 C3.81333333,1.608 3.76,1.90933333 3.76,2.368 L3.76,2.992 L7.616,2.992 L7.616,4.256 L3.76,4.256 L3.76,11.6 L2.288,11.6 L2.288,4.256 L0,4.256 L0,2.992 L2.288,2.992 Z" id="Path"></path>
                    <path d="M14.32,11.808 C13.0613333,11.808 12.096,11.3946667 11.424,10.568 C10.752,9.74133333 10.416,8.66133333 10.416,7.328 C10.416,5.96266667 10.7786667,4.872 11.504,4.056 C12.2293333,3.24 13.168,2.832 14.32,2.832 C15.5786667,2.832 16.5466667,3.26666667 17.224,4.136 C17.9013333,5.00533333 18.2133333,6.208 18.16,7.744 L11.968,7.744 C11.968,8.59733333 12.184,9.288 12.616,9.816 C13.048,10.344 13.6053333,10.608 14.288,10.608 C15.44,10.608 16.1813333,10.08 16.512,9.024 L18.032,9.024 C17.8506667,9.856 17.432,10.528 16.776,11.04 C16.12,11.552 15.3013333,11.808 14.32,11.808 Z M14.32,4.048 C13.6053333,4.048 13.0453333,4.256 12.64,4.672 C12.2346667,5.088 12.016,5.70666667 11.984,6.528 L16.592,6.528 C16.6026667,5.80266667 16.408,5.208 16.008,4.744 C15.608,4.28 15.0453333,4.048 14.32,4.048 Z" id="Shape"></path>
                    <path d="M24.656,11.808 C23.3973333,11.808 22.432,11.3946667 21.76,10.568 C21.088,9.74133333 20.752,8.66133333 20.752,7.328 C20.752,5.96266667 21.1146667,4.872 21.84,4.056 C22.5653333,3.24 23.504,2.832 24.656,2.832 C25.9146667,2.832 26.8826667,3.26666667 27.56,4.136 C28.2373333,5.00533333 28.5493333,6.208 28.496,7.744 L22.304,7.744 C22.304,8.59733333 22.52,9.288 22.952,9.816 C23.384,10.344 23.9413333,10.608 24.624,10.608 C25.776,10.608 26.5173333,10.08 26.848,9.024 L28.368,9.024 C28.1866667,9.856 27.768,10.528 27.112,11.04 C26.456,11.552 25.6373333,11.808 24.656,11.808 Z M24.656,4.048 C23.9413333,4.048 23.3813333,4.256 22.976,4.672 C22.5706667,5.088 22.352,5.70666667 22.32,6.528 L26.928,6.528 C26.9386667,5.80266667 26.744,5.208 26.344,4.744 C25.944,4.28 25.3813333,4.048 24.656,4.048 Z" id="Shape"></path>
                    <path d="M36.88,4.288 L36.88,0 L38.352,0 L38.352,11.6 L36.896,11.6 L36.88,10.384 C36.3253333,11.3333333 35.4773333,11.808 34.336,11.808 C33.312,11.808 32.4773333,11.408 31.832,10.608 C31.1866667,9.808 30.864,8.71466667 30.864,7.328 C30.864,5.94133333 31.1893333,4.848 31.84,4.048 C32.4906667,3.248 33.3226667,2.848 34.336,2.848 C35.4773333,2.848 36.3253333,3.328 36.88,4.288 Z M36.944,7.328 C36.944,6.25066667 36.7253333,5.44 36.288,4.896 C35.8506667,4.352 35.3013333,4.08 34.64,4.08 C33.9146667,4.08 33.3626667,4.36266667 32.984,4.928 C32.6053333,5.49333333 32.416,6.29333333 32.416,7.328 C32.416,8.36266667 32.6053333,9.16533333 32.984,9.736 C33.3626667,10.3066667 33.9146667,10.592 34.64,10.592 C35.3013333,10.592 35.8506667,10.3146667 36.288,9.76 C36.7253333,9.20533333 36.944,8.39466667 36.944,7.328 Z" id="Shape"></path>
                    <path d="M43.632,2.992 L43.632,2.368 C43.632,1.45066667 43.7866667,0.826666667 44.096,0.496 C44.4053333,0.165333333 45.0133333,0 45.92,0 L48.96,0 L48.96,1.248 L45.952,1.248 C45.6,1.248 45.3706667,1.32 45.264,1.464 C45.1573333,1.608 45.104,1.90933333 45.104,2.368 L45.104,2.992 L48.96,2.992 L48.96,4.256 L45.104,4.256 L45.104,11.6 L43.632,11.6 L43.632,4.256 L41.344,4.256 L41.344,2.992 L43.632,2.992 Z" id="Path"></path>
                    <path d="M53.872,4.896 C53.4133333,5.42933333 53.184,6.24 53.184,7.328 C53.184,8.416 53.4133333,9.22933333 53.872,9.768 C54.3306667,10.3066667 54.912,10.576 55.616,10.576 C56.32,10.576 56.9013333,10.3066667 57.36,9.768 C57.8186667,9.22933333 58.048,8.416 58.048,7.328 C58.048,6.24 57.8186667,5.42666667 57.36,4.888 C56.9013333,4.34933333 56.32,4.08 55.616,4.08 C54.912,4.08 54.3306667,4.352 53.872,4.896 Z M52.8,10.672 C52.0213333,9.904 51.632,8.78933333 51.632,7.328 C51.632,5.86666667 52.024,4.75466667 52.808,3.992 C53.592,3.22933333 54.528,2.848 55.616,2.848 C56.704,2.848 57.64,3.22933333 58.424,3.992 C59.208,4.75466667 59.6,5.86666667 59.6,7.328 C59.6,8.78933333 59.208,9.90133333 58.424,10.664 C57.64,11.4266667 56.704,11.808 55.616,11.808 C54.528,11.808 53.5893333,11.4293333 52.8,10.672 Z" id="Shape"></path>
                    <path d="M62.16,2.992 L66.048,2.992 L66.048,4.528 C66.2613333,4.048 66.568,3.672 66.968,3.4 C67.368,3.128 67.8293333,2.992 68.352,2.992 L69.824,2.992 L69.824,4.336 L68.368,4.336 C66.8426667,4.336 66.08,5.328 66.08,7.312 L66.08,10.336 L69.024,10.336 L69.024,11.6 L62.176,11.6 L62.176,10.336 L64.608,10.336 L64.608,4.256 L62.16,4.256 L62.16,2.992 Z" id="Path"></path>
                    <polygon id="Path" points="75.584 4.72 76.96 4.72 78.24 9.36 79.12 2.992 80.608 2.992 79.168 11.6 77.68 11.6 76.272 6.4 74.864 11.6 73.376 11.6 71.936 2.992 73.44 2.992 74.304 9.36"></polygon>
                    <path d="M85.76,11.808 C84.96,11.808 84.2933333,11.5893333 83.76,11.152 C83.2266667,10.7146667 82.96,10.1173333 82.96,9.36 C82.96,8.85866667 83.0853333,8.432 83.336,8.08 C83.5866667,7.728 83.976,7.43733333 84.504,7.208 C85.032,6.97866667 85.6186667,6.79733333 86.264,6.664 C86.9093333,6.53066667 87.7066667,6.41066667 88.656,6.304 L88.656,5.936 C88.656,4.64533333 88.0106667,4 86.72,4 C85.4613333,4 84.7786667,4.57066667 84.672,5.712 L83.168,5.712 C83.232,4.816 83.608,4.10933333 84.296,3.592 C84.984,3.07466667 85.7973333,2.816 86.736,2.816 C87.9306667,2.816 88.7973333,3.09066667 89.336,3.64 C89.8746667,4.18933333 90.1333333,5.06133333 90.112,6.256 L90.096,8.352 C90.0853333,9.472 90.1226667,10.5546667 90.208,11.6 L88.8,11.6 L88.784,10.336 C88.208,11.3173333 87.2,11.808 85.76,11.808 Z M88.768,7.712 L88.768,7.472 C87.3173333,7.61066667 86.2506667,7.81066667 85.568,8.072 C84.8853333,8.33333333 84.544,8.752 84.544,9.328 C84.544,9.73333333 84.6853333,10.0506667 84.968,10.28 C85.2506667,10.5093333 85.6533333,10.624 86.176,10.624 C86.9333333,10.624 87.5546667,10.4026667 88.04,9.96 C88.5253333,9.51733333 88.768,8.768 88.768,7.712 Z" id="Shape"></path>
                    <path d="M93.168,2.992 L97.056,2.992 L97.056,4.528 C97.2693333,4.048 97.576,3.672 97.976,3.4 C98.376,3.128 98.8373333,2.992 99.36,2.992 L100.832,2.992 L100.832,4.336 L99.376,4.336 C97.8506667,4.336 97.088,5.328 97.088,7.312 L97.088,10.336 L100.032,10.336 L100.032,11.6 L93.184,11.6 L93.184,10.336 L95.616,10.336 L95.616,4.256 L93.168,4.256 L93.168,2.992 Z" id="Path"></path>
                    <path d="M109.232,4.288 L109.232,0 L110.704,0 L110.704,11.6 L109.248,11.6 L109.232,10.384 C108.677333,11.3333333 107.829333,11.808 106.688,11.808 C105.664,11.808 104.829333,11.408 104.184,10.608 C103.538667,9.808 103.216,8.71466667 103.216,7.328 C103.216,5.94133333 103.541333,4.848 104.192,4.048 C104.842667,3.248 105.674667,2.848 106.688,2.848 C107.829333,2.848 108.677333,3.328 109.232,4.288 Z M109.296,7.328 C109.296,6.25066667 109.077333,5.44 108.64,4.896 C108.202667,4.352 107.653333,4.08 106.992,4.08 C106.266667,4.08 105.714667,4.36266667 105.336,4.928 C104.957333,5.49333333 104.768,6.29333333 104.768,7.328 C104.768,8.36266667 104.957333,9.16533333 105.336,9.736 C105.714667,10.3066667 106.266667,10.592 106.992,10.592 C107.653333,10.592 108.202667,10.3146667 108.64,9.76 C109.077333,9.20533333 109.296,8.39466667 109.296,7.328 Z" id="Shape"></path>
                </g>
                <path id="Line-Copy-4" d="M169.964,138.5 L178.964,143 L169.964,147.5 L169.964,143.5 L121.727984,143.5 L121.727984,142.5 L169.964,142.5 L169.964,138.5 Z" fill="#10162F" fill-rule="nonzero"></path>
                <path id="Line-Copy-4" d="M174.57459,62.4917589 L184.632483,62.7897346 L178.359367,70.6572636 L176.677,67.027 L49.6742654,125.895045 L49.2206262,126.105311 L48.8000955,125.198032 L49.2537346,124.987767 L176.256,66.12 L174.57459,62.4917589 Z" fill="#10162F" fill-rule="nonzero"></path>
                <path id="Line-Copy-4" d="M174.57459,159.491759 L184.632483,159.789735 L178.359367,167.657264 L176.677,164.027 L49.6742654,222.895045 L49.2206262,223.105311 L48.8000955,222.198032 L49.2537346,221.987767 L176.256,163.12 L174.57459,159.491759 Z" transform="translate(116.8214, 191.2207) scale(1, -1) translate(-116.8214, -191.2207)" fill="#10162F" fill-rule="nonzero"></path>
                <circle id="Oval-Copy-4" stroke="#10162F" fill="#F5FFE3" cx="222.464" cy="43.5" r="43"></circle>
                <circle id="Oval-Copy-5" stroke="#10162F" fill="#F5FFE3" cx="222.464" cy="143.5" r="43"></circle>
                <circle id="Oval-Copy-6" stroke="#10162F" fill="#F5FFE3" cx="222.464" cy="243.5" r="43"></circle>
            </g>
        </g>
    </g>
</svg>